<?xml version="1.0" encoding="UTF-8"?>
<svg id="Layer_1" xmlns="http://www.w3.org/2000/svg" version="1.1" viewBox="0 0 1399.9 1073.1">
  <!-- Generator: Adobe Illustrator 30.3.0, SVG Export Plug-In . SVG Version: 2.1.3 Build 182)  -->
  <defs>
    <style>
      .st0 {
        stroke-miterlimit: 60;
      }

      .st0, .st1 {
        stroke: #fff;
        stroke-width: 2px;
      }

      .st0, .st1, .st2 {
        fill: #fff;
      }

      .st3 {
        fill: #2c296c;
      }

      .st1 {
        stroke-miterlimit: 10;
      }

      .st4 {
        fill: #e30613;
      }
    </style>
  </defs>
  <path class="st4" d="M-2104.4,2.4v292.7c0,284.8,166.8,549.9,442.2,703h0c275.5-153.1,442.2-418.2,442.2-703V2.4h-884.5.1Z"/>
  <path class="st3" d="M-1659.6,999.8l-5-2.8c-280.2-155.8-447.5-421.9-447.5-712V-18h905.1v303c0,290.1-167.3,556.2-447.5,712l-5,2.8h0ZM-2091.5,2.6v282.4c0,280.8,161.4,538.7,431.9,691.2,270.6-152.4,432-410.4,432-691.2V2.6h-863.9Z"/>
  <g>
    <path class="st2" d="M-1746.5,809.5c-.9-.2-2-.3-3-.5-1.1-.2-2.2-.4-3.3-.7-2.3-.5-4.8-1.1-7.4-1.8-1.3-.3-2.6-.8-4-1.2-1.3-.5-2.7-.9-4.1-1.4-2.8-1-5.5-2.3-8.3-3.7-2.7-1.4-5.4-3-7.9-4.9-2.6-1.8-4.9-3.8-7.1-6-2.1-2.2-4.1-4.5-5.8-6.8-1.7-2.4-3.2-4.8-4.4-7.2-1.2-2.4-2.3-4.7-3.1-6.9-1.7-4.4-2.7-8.2-3.3-10.9-.3-1.3-.5-2.4-.7-3.1,0-.7-.2-1.1-.2-1.1,0,0,0,.4,0,1.1,0,.7.2,1.8.4,3.2.2,1.4.5,3,.9,4.9s.9,4,1.7,6.3c.7,2.3,1.7,4.7,2.8,7.2,1.2,2.5,2.6,5,4.3,7.5,1.7,2.5,3.7,4.9,5.9,7.2,2.2,2.3,4.6,4.4,7.3,6.3,2.6,1.9,5.4,3.5,8.2,4.9,2.8,1.4,5.7,2.6,8.5,3.6s2.8.9,4.2,1.4c1.4.4,2.7.8,4.1,1.1,2.7.6,5.2,1.1,7.6,1.5,1.2.2,2.3.4,3.4.5s2.1.2,3.1.3c1.9.2,3.6.3,5,.4,2.8,0,4.4.2,4.4.2,0,0-1.6-.2-4.3-.5-1.4-.2-3-.4-4.9-.7v-.2Z"/>
    <path class="st2" d="M-1796.2,733.7c-2.5-2.4-4.4-5.3-5.9-8.2-1.4-2.9-2.4-5.9-3.1-8.7-1.4-5.6-1.8-10.4-2-13.8-.2-3.4,0-5.3,0-5.3,0,0-.2,1.9-.3,5.3,0,1.7,0,3.8.2,6.1.2,2.4.5,5,1.1,7.9s1.5,6,2.8,9.1c1.4,3.1,3.3,6.2,5.9,9,2.6,2.7,6,4.9,9.8,6.1,3.8,1.3,7.9,1.7,11.8,1.4,2,0,4-.4,5.9-.7s3.8-.6,5.7-1c3.8-.8,7.5-1.7,11-2.8s6.9-2.3,9.9-3.7,3-1.4,4.4-2.2,2.7-1.6,4-2.4c2.5-1.6,4.6-3.4,6.3-5.1,1.7-1.7,3-3.4,3.9-4.9s1.5-2.7,1.8-3.6c.3-.9.4-1.3.4-1.3,0,0-.2.4-.6,1.2s-1.2,1.9-2.2,3.2c-1.1,1.3-2.5,2.8-4.3,4.2-1.8,1.5-3.9,2.9-6.4,4.4-5,2.8-11.2,5.3-18,7.4-3.4,1-7,2-10.7,2.8-1.9.4-3.7.8-5.6,1.2s-3.7.6-5.6.8c-3.7.2-7.5,0-11-1.1s-6.6-2.9-9.1-5.4h-.1Z"/>
    <path class="st2" d="M-1507,663.7c-8.2-31-21.1-51.4-33.5-71.1-11.8-18.8-23-36.5-28.8-62.3-3.3-14.6-9.2-29.6-27.9-29.6v10.4-10.4h0c-5.4,0-11.3,1.2-18.1,2.6h-.2l-3.1.7c-.8.2-1.5.3-2.3.5l-43.3-254.5c2.8,2.7,6.4,8.6,7,21.6.8,19.8,8.3,32.8,8.6,33.4.6,1,1.7,1.6,2.8,1.6s1.1-.1,1.6-.4c1.5-.9,2-2.8,1.2-4.4,0-.1-7-12.3-7.7-30.4-.4-9.6-2.4-16.2-4.9-20.6,11.9,5.4,19.3,11.1,24.7,15.2,5.1,3.9,8.7,6.6,12.8,6.6s1,0,1.5-.1c4.7-.8,8.7-5.3,13.5-12.3,4.4-6.3,3.4-10.8,1.8-13.5-4-6.7-16.8-9.9-39.1-10h-.3c-13.2,0-25.7,1.2-29.4,1.5-8.3-3.1-34.4-11.1-56.9-2.5-8.1,3.1-12.6,9.3-12.2,17,.4,9.3,7.9,18.9,16.6,21.4,1.4.4,2.8.6,4.2.6,5,0,9.5-2.6,12.8-7.5,6.2-9.2,15.1-14.6,22.6-17.7-8.2,13.3-11.3,32.6-11.4,33.7-.3,1.7.9,3.4,2.7,3.6h.5c1.6,0,2.9-1.1,3.2-2.7,1.2-8.1,6.2-28.8,15.2-37.2l-52.4,282.4c-4.6-.7-8.7-1.3-12.5-1.3-18.4,0-23.5,14.3-26,28.2-4.4,23.9-14,40.6-24.2,58.2-10.7,18.5-21.8,37.7-28.2,66.5-11.7,52.1-9,87.2,8.4,110.6,6.9,9.3,16.2,16.6,27.6,21.8,11.6,5.3,25.7,8.5,42,9.7,5,.3,9.9.5,14.6.5,21.1,0,39.3-3.4,53.9-10.2,3-1.4,5.9-3,8.6-4.6,11,4.7,26,7.1,44.6,7.1s19.9-.6,31.2-1.8c36.7-4,61.4-15.9,75.4-36.3,9.3-13.5,13.6-30.3,13.3-51.4-.3-17.1-3.6-37-10.4-62.6h0ZM-1579.5,532.5c12.3,54.8,46.7,74.4,62.4,133.8,19.8,74.4,16.7,127.9-69.3,137.2-11.3,1.2-21.3,1.8-30.1,1.8-12.7,0-22.8-1.2-30.8-3.1,2.4.5,4.8.8,7.3,1.1,2.1.2,4.1.3,6.2.5,2.1,0,4.2,0,6.2,0,2.1,0,4.1,0,6.2-.2,1,0,2.1,0,3.1-.2,1,0,2-.2,3-.2s2-.2,3-.2c1,0,2-.2,3-.3,2-.2,3.9-.4,5.8-.7s3.8-.6,5.6-.8c1.8-.3,3.6-.5,5.3-.9,1.7-.3,3.4-.6,5-.9,1.6-.3,3.2-.6,4.7-.9,3-.6,5.7-1.2,8.1-1.7,2.4-.6,4.5-1.1,6.2-1.5,3.5-.8,5.4-1.3,5.4-1.3,0,0-2,.3-5.5.8-1.8.2-3.9.5-6.3.9-2.5.3-5.2.6-8.2.9-1.5.2-3.1.3-4.7.5-1.6,0-3.3.3-5,.4-1.7.2-3.5.3-5.3.3s-3.7.2-5.6.3c-1.9,0-3.8,0-5.7,0h-8.8c-1,0-2,0-3,0-2,0-4-.2-5.9-.4-2-.2-3.9-.5-5.9-.7-1.9-.3-3.9-.6-5.7-1-3.7-.8-7.4-1.7-10.6-3.1-1.7-.6-3.1-1.4-4.6-2.1-1.4-.8-2.8-1.6-3.9-2.5-2.4-1.8-4.2-3.7-5.3-5.7-.6-1-1-1.9-1.3-2.9,1.4,0,3-.3,4.7-.8,1.8-.5,3.8-1.1,5.7-2.1,1.9-1,3.8-2.2,5.5-3.7s3.3-3.3,4.6-5.2c.4-.5.6-1,.9-1.5s.6-1,.9-1.5c.5-1,1.1-2,1.4-3.1.4-1.1.8-2.1,1.1-3.2l.5-1.6c.2-.5.3-1.1.4-1.6.3-1.1.5-2.1.7-3.1s.4-2.1.5-3.1.2-2,.3-3c0-1,0-1.9.2-2.8v-5.2c0-1.6,0-3.1,0-4.4s-.2-2.4-.2-3.3c0-1.8-.2-2.9-.2-2.9,0,0,0,1.1-.2,2.9,0,.9,0,2-.3,3.3-.2,1.3-.3,2.7-.5,4.3s-.3,1.6-.4,2.4c0,.4,0,.8-.2,1.3,0,.4-.2.9-.3,1.3-.2.9-.4,1.8-.6,2.7s-.5,1.8-.7,2.8c-.2.9-.6,1.9-.9,2.8-.3.9-.7,1.9-1.1,2.8-.2.5-.4.9-.6,1.4l-.7,1.3c-.4.9-.9,1.8-1.4,2.6-.5.9-1.1,1.6-1.6,2.4-.3.4-.6.7-.9,1.1-.3.4-.6.7-.9,1.1-1.3,1.4-2.7,2.5-4,3.4-1.4.9-2.9,1.5-4.3,2s-2.8.7-4.1.8h-1.9c2.3-.6,4.7-1.5,7.2-3.1,2.4-1.5,4.7-3.6,6.6-6.1,1.9-2.4,3.4-5.3,4.6-8.2s2.1-6,2.7-9.2c.7-3.1,1.1-6.4,1.3-9.5,0-1.6.2-3.2.3-4.8v-4.8c0-3.2-.5-6.2-1-9.2-.5-2.9-1.1-5.7-1.9-8.3-.3-1.3-.7-2.6-1.1-3.8s-.8-2.4-1.1-3.5c-.8-2.2-1.5-4.2-2.3-6-.4-.9-.7-1.7-1-2.5s-.6-1.4-.9-2.1c-.5-1.3-1-2.2-1.4-2.9-.3-.7-.5-1-.5-1,0,0,0,.4.4,1.1.2.7.7,1.7,1.1,3,.2.6.5,1.4.7,2.1.2.8.5,1.6.8,2.5.5,1.8,1.1,3.9,1.7,6.1.3,1.1.5,2.3.8,3.5.2,1.2.5,2.5.7,3.8.5,2.6.8,5.4,1,8.3.2,2.9.3,5.8.2,8.8,0,2.9-.7,6-1.2,8.9-.6,3-1.3,5.9-2.2,8.7-.9,2.8-2,5.4-3.3,7.8-1.3,2.3-2.7,4.4-4.3,6-1.6,1.6-3.3,2.8-4.9,3.6-3.3,1.6-6.5,1.6-8.6,1.5-.5,0-.9,0-1.3,0-2.3-.5-4.7-1.3-7.2-2.6h0c-.5-.3-1-.5-1.5-.8-1.2-.8-3-2.2-4.9-4.5,1.2.7,2.5,1.4,3.8,1.9,1.8.7,3.5,1.3,5.3,1.6,1.7.3,3.4.5,4.9.4,1.5,0,2.9-.2,4-.5,1.2-.3,2.1-.6,2.9-.9.8-.3,1.4-.6,1.8-.8l.6-.3s-.2,0-.7,0c-.4,0-1.1.2-1.9.3s-1.8,0-2.9,0c-1.1,0-2.3-.2-3.6-.5-1.3-.3-2.6-.8-4-1.5-1.4-.6-2.7-1.5-3.9-2.5-1.3-1-2.5-2.2-3.6-3.4s-2.1-2.6-3.1-4.1c-.9-1.4-1.7-2.9-2.5-4.4-.7-1.5-1.3-3-1.9-4.5-.5-1.5-.9-3-1.3-4.4-.2-.7-.3-1.4-.4-2,0-.7-.2-1.3-.3-1.9,0-.6-.2-1.2-.2-1.8s0-1.1,0-1.6v-1.8c2.6-47.1,8.7-68,13.4-78.8,4-9.3,12.3-25.4,35.1-37.1.4-.2.9-.3,1.3-.5,3-1.1,6-2.3,9.2-3.5,3.1-1.2,6.3-2.3,9.5-3.5,6.4-2.3,12.8-4.5,18.8-6.5s11.7-3.8,16.6-5.3c9.7-3,16.3-4.7,16.3-4.7,0,0-6.7,1.1-16.7,3.2-5,1-10.8,2.3-17.1,3.7-6.2,1.4-12.9,3-19.5,4.7-3.3.8-6.6,1.7-9.9,2.6-3.3.8-6.4,1.8-9.5,2.6s-6.1,1.7-8.9,2.5-5.5,1.6-8,2.4c-2.5.8-4.7,1.5-6.7,2.1-1.9.6-3.6,1.2-5,1.6-.6-3.2-1.7-7.5-3.3-14.1-1.4-5.5-2.7-10.5-3.9-15.1,0,.3.2.5.3.8.9,1.7,1.7,3.4,2.5,5,.9,1.6,1.7,3.1,2.5,4.6s1.6,2.8,2.3,4c.7,1.2,1.4,2.4,2,3.4s1.2,1.8,1.6,2.6c.9,1.4,1.4,2.2,1.4,2.2,0,0-.4-.9-1-2.4-.3-.8-.7-1.7-1.1-2.8s-.9-2.3-1.3-3.7c-.5-1.4-1-2.8-1.5-4.4-.5-1.6-1-3.2-1.6-4.9-.5-1.7-1-3.5-1.5-5.3-.4-1.8-.9-3.6-1.4-5.5-.4-1.8-.8-3.7-1.2-5.5-.3-1.8-.7-3.6-.9-5.3-.3-1.7-.5-3.4-.7-5s-.3-3.1-.5-4.5c-.2-2.1-.3-3.9-.3-5.3,0,0,0,0,.2,0,1.7-.9,3.6-1.9,5.8-2.9,2.1-1.1,4.5-2.1,6.9-3.3,2.5-1.1,5.1-2.3,7.9-3.4,2.8-1.1,5.6-2.3,8.6-3.3s3-1.1,4.4-1.6l4.5-1.5,4.5-1.5c1.5-.4,3-.9,4.6-1.3,3-.9,6-1.6,8.9-2.4,2.9-.8,5.7-1.3,8.4-1.9,1.3-.3,2.7-.5,3.9-.8,1.3-.2,2.5-.4,3.7-.6,2.4-.4,4.6-.8,6.5-1s3.6-.4,5-.6c2.8-.3,4.4-.5,4.4-.5h-9.5c-2,0-4.2.2-6.6.4-1.2,0-2.5,0-3.8.2-1.3,0-2.6.3-4,.4-2.8.3-5.7.5-8.7,1s-6.1.8-9.3,1.5c-1.6.3-3.2.6-4.8.9-1.6.3-3.2.7-4.8,1-1.6.4-3.2.7-4.8,1.1-1.6.4-3.1.8-4.7,1.2-3.1.7-6.1,1.7-9.1,2.5-2.9.9-5.8,1.8-8.4,2.6-2.7.9-5.2,1.8-7.5,2.6-1.5.5-2.9,1.1-4.2,1.6,2.2-2.9,5.5-5.2,10.3-7.1,20-7.8,34.6-10.5,57.8-15.1,6.6-1.3,11.9-2.4,16.3-2.4,9.1,0,14,4.7,17.8,21.4l-.2.6ZM-1737.6,813.4c-58.8-4.1-77-35.9-76.2-80.2.5,1.2,1.1,2.4,1.7,3.6,1.6,2.9,3.5,5.9,6.1,8.6,1.3,1.4,2.7,2.6,4.3,3.8,1.6,1.2,3.3,2.2,5.1,3.1,3.6,1.8,7.7,2.8,11.7,3.2,4.1.4,8.2.2,12.2-.4,7.7-1.3,15.4-3.2,23.1-5.7,2.4-.8,4.8-1.7,7.1-2.6h0c-.5.2-.9.4-1.4.6-.9.4-1.9.8-2.8,1.2s-1.8.8-2.7,1.2c-.9.4-1.8.7-2.7,1-1.7.7-3.4,1.3-4.9,1.9-1.5.6-2.9,1-4.2,1.5-1.3.5-2.3.8-3.2,1.2-1.8.7-2.8,1.1-2.8,1.1,0,0,1.1,0,3-.4,1,0,2.1-.3,3.4-.5.7,0,1.4-.2,2.1-.3s1.5-.3,2.3-.5c1.6-.4,3.3-.8,5.2-1.3.9-.2,1.9-.5,2.8-.8s1.9-.7,2.9-1,2-.7,3-1c.5-.2,1-.3,1.5-.5s1-.4,1.5-.6c1-.4,2-.9,3.1-1.3l1.5-.7c.5-.2,1-.5,1.5-.8,1-.5,2-1.1,3-1.6.5-.3,1-.5,1.5-.8s.9-.6,1.4-.9c.9-.6,1.9-1.2,2.8-1.8s1.7-1.4,2.6-2c1.7-1.3,3.2-2.8,4.6-4.2.7-.7,1.3-1.5,1.9-2.2.3-.4.6-.7.9-1.1.3-.4.5-.8.8-1.1,1.1-1.5,1.8-3,2.5-4.3.6-1.4,1.1-2.6,1.4-3.7.2-.5.3-1,.4-1.5,0-.4,0-.7.2-1,0-.2.2-.5.3-.7.2-.5.4-1,.6-1.6,0,11.3,2,22.1,7.9,32.1,6,10,13.6,15.5,20.7,18.5-2.7,5.8-3.5,12.2-1.9,18.4.7,2.8,2.1,6.2,4.7,9.5-2.7,1.4-5.4,2.5-7.9,3.6-2.9,1.2-5.7,2.1-8.1,2.9-1.2.4-2.4.8-3.4,1.1-1.1.3-2.1.6-3,.9-1.8.6-3.2.9-4.2,1.2s-1.5.4-1.5.4c0,0,.5,0,1.5,0s2.5-.2,4.3-.5c.9,0,2-.3,3.1-.4,1.1-.2,2.3-.4,3.6-.7,1.3-.3,2.6-.6,4.1-.9,1.4-.4,2.9-.8,4.5-1.2,3-.9,6.1-2,9.4-3.4,1.2,1.2,2.5,2.3,4,3.5-13.2,6.8-30.8,10.7-52.9,10.7s-9.1-.2-14-.5h0ZM-1737.9,537.6c3.8,0,8.4.7,14,1.6,6,1,11.4,1.8,16.4,2.7l-.8,15.9c-2.6-.8-5.1-1.6-7.5-2.3-2.7-.8-5.2-1.7-7.6-2.5s-4.7-1.7-6.8-2.4c-2.1-.7-4-1.5-5.7-2.2-1.7-.6-3.1-1.3-4.3-1.8-2.4-1-3.7-1.6-3.7-1.6,0,0,1.3.7,3.6,2,1.1.6,2.5,1.4,4.1,2.2s3.4,1.8,5.4,2.8,4.2,2,6.5,3.1c2.3,1,4.8,2.2,7.4,3.3s5.2,2.3,7.9,3.4c2.7,1.1,5.5,2.3,8.3,3.3,2.7,1.1,5.4,2.1,8.1,3.1,1.1,4.7,2.5,9.9,4,15.6.6,2.3,1.2,4.6,1.8,7-.8-.3-1.6-.5-2.5-.8-1-.3-2.1-.7-3.2-1s-2.3-.5-3.4-.8c-1.2-.3-2.4-.6-3.6-.9-1.2-.3-2.5-.4-3.8-.7-1.3-.2-2.6-.4-4-.7-1.4-.2-2.7-.3-4.1-.5-1.4,0-2.8-.3-4.2-.4-1.4,0-2.8-.2-4.2-.2-2.8-.2-5.6,0-8.4,0-1.4,0-2.8,0-4.1,0-1.4,0-2.7,0-4,.2-2.6.2-5.2.4-7.6.8-1.2.2-2.4.3-3.5.5s-2.2.4-3.2.6c-2.1.3-4,.8-5.6,1.1-1.7.4-3.1.7-4.3,1.1-2.4.6-3.7,1.1-3.7,1.1,0,0,1.4,0,3.8-.4,1.2,0,2.7-.2,4.4-.4,1.7,0,3.6-.3,5.7-.4,2.1,0,4.3-.2,6.7-.4,2.4-.2,4.9,0,7.5-.2h8c2.7,0,5.5,0,8.3.2,1.4,0,2.8,0,4.1.2.7,0,1.5,0,2.2.2l-3.9,13.5h-.2c-1.5-.3-3.1-.6-4.6-.8s-3-.4-4.5-.6c-1.5-.2-2.9-.4-4.4-.5-1.4,0-2.8-.2-4.2-.3-1.4,0-2.7-.2-4-.3s-2.5,0-3.7,0c-2.4,0-4.6,0-6.5,0-1.9,0-3.6.2-5,.2-2.8,0-4.3.2-4.3.2,0,0,1.6,0,4.3.2,1.4,0,3,.2,5,.3,1.9.2,4.1.5,6.4.7,1.2.2,2.4.2,3.6.5,1.3.2,2.5.4,3.9.7,1.3.2,2.7.5,4.1.7,1.4.3,2.8.6,4.2.9,1.4.3,2.9.7,4.4,1,1.4.3,2.7.7,4.1,1.1-1.9,4.2-5.6,11.6,2,13.7,8.7,2.4,9.7-2.2,10.1-10,2,.7,3.9,1.4,5.9,2.1,1.4.5,2.9,1.1,4.2,1.7,1.4.6,2.8,1.1,4.1,1.7,2.7,1.2,5.3,2.3,7.7,3.4.2,0,.3.2.5.2-1.2,4-2.9,9.7-4.8,18.5-1.7,7.9-4.5,16.6-7.5,25.9-1.3,3.9-2.6,8-3.8,12h-.9c-1.8,0-3.6-.3-5.2-.3s-3.2,0-4.7,0h-9.6s.9.2,2.6.6c.8.2,1.8.4,2.9.6.6,0,1.2.3,1.8.4.6.2,1.3.3,2,.5,1.4.4,2.9.8,4.4,1.2,1.6.4,3.2,1,4.9,1.5,0,0,.3,0,.4,0-.4,1.2-.7,2.4-1,3.7-.3,0-.6,0-1-.2-2.2-.3-4.3-.8-6.4-1s-4.1-.6-6-.7c-1.9,0-3.7-.3-5.4-.4h-2.2c-1.5-1.1-3-2.2-4.5-3.2-2.7-1.7-5.3-3.3-8-4.6v-.2c0-.5,0-1.1,0-1.9,0-1.6-.4-3.8-.8-6.4-.2-1.3-.5-2.7-.7-4.2-.3-1.5-.6-3-1-4.6s-.8-3.2-1.3-4.9c-.4-1.7-1-3.3-1.5-5s-1.1-3.3-1.7-4.9c-.5-1.6-1.2-3.1-1.8-4.6-.6-1.5-1.3-2.9-1.9-4.3-.6-1.4-1.2-2.6-1.8-3.7-.6-1.1-1.1-2.2-1.6-3.1-.5-.9-1-1.7-1.4-2.3-.8-1.3-1.2-2-1.2-2,0,0,.3.8.8,2.2.2.7.5,1.5.9,2.5.3,1,.6,2.1,1,3.3s.8,2.5,1.1,3.9c.3,1.4.7,2.9,1,4.4.3,1.6.7,3.1.9,4.8.2,1.6.5,3.3.7,4.9.2,1.7.4,3.3.5,4.9,0,1.6.2,3.2.3,4.8v8.5c0,1.5,0,2.8-.2,3.9,0,0-.3,0-.4,0-1-.2-2-.3-3-.4-.2-.5-.3-1-.5-1.6-.9-2.7-2.2-6.2-3.7-9.6-.8-1.7-1.6-3.4-2.4-4.9-.4-.8-.8-1.5-1.2-2.2-.4-.7-.8-1.3-1.1-1.9-.4-.6-.7-1.1-1-1.6s-.6-.8-.8-1.2c-.5-.6-.7-1-.7-1,0,0,0,.4.3,1.2,0,.4.2.8.3,1.4,0,.5.2,1.1.4,1.8,0,.6.2,1.4.4,2.1,0,.7.2,1.5.3,2.4.2,1.6.3,3.4.4,5.1.2,3.5,0,7,0,9.6v1.2c-1.9.5-3.7,1.1-5.3,1.8-4.8,2.1-8.3,4.8-11,7.2s-4.5,4.5-5.7,6-1.7,2.4-1.7,2.4c0,0,.8-.6,2.3-1.7,1.5-1.1,3.8-2.6,6.8-4.2,3-1.6,6.7-3.5,11.1-4.7,4.3-1.2,9.4-1.8,14.3-.5.6.2,1.2.4,1.8.6.2,0,.4,0,.6.2h-4.1c-.9,0-1.7,0-2.5.2-.8,0-1.6.2-2.3.4-.7.2-1.5.4-2.1.5-.7,0-1.3.4-1.9.6-.6.2-1.2.4-1.7.6-1,.5-1.9.9-2.6,1.3-1.4.8-2.1,1.4-2.1,1.4,0,0,.9,0,2.5-.3.8,0,1.7-.2,2.8-.3,1.1,0,2.3-.2,3.6-.2h4.1c.7,0,1.5,0,2.2,0,.8,0,1.5.2,2.3.3s1.6.3,2.4.5,1.6.4,2.4.6c1.6.5,3.2,1,4.7,1.7,1.5.6,3,1.5,4.5,2.2,1.4.8,2.8,1.7,4.1,2.6,1.3.9,2.5,1.8,3.6,2.8,1.1.9,2.1,1.8,3.1,2.7,1.9,1.7,3.3,3.3,4.2,4.4.5.5.8,1,1.1,1.3,0,0,.2.2.2.3,1.1,2.3,1.8,4.7,2,7.1.3,3.1-.3,6.2-1.6,9.1-1.3,3-3.4,5.7-6,8.2-2.5,2.5-5.5,4.7-8.6,6.6-6.3,3.9-13.4,6.8-20.6,9.1s-14.6,4-21.6,5.1c-3.4.5-6.7.7-9.7.4-3.1-.3-6-1.1-8.5-2.3-5.1-2.4-8.8-6.7-11.3-11.3-2.5-4.7-4-9.6-4.9-14-.9-4.5-1.3-8.5-1.6-11.8-.2-2.4-.2-4.4-.2-5.9,1-5.7,2.2-11.6,3.5-17.5,12.3-55.1,43.2-74.4,52.5-125.1,3-16.2,7.6-20.3,16.6-20.3l-.8-.5ZM-1705.4,589.8c.5,0,1,0,1.5.2,1.3,0,2.6.3,3.8.4,1.2.2,2.4.4,3.6.6,1.2.2,2.3.4,3.4.5s2.2.4,3.2.6c1.2.3,2.4.5,3.5.7.2.7.3,1.4.5,2,2,7.9,3.3,13.1,3.5,15.7v1.4c-2.5-.9-5.2-1.8-8-2.7-1.4-.4-2.9-.9-4.4-1.3-1.5-.4-3-.9-4.5-1.3-2.5-.6-4.9-1.3-7.4-1.9l1.2-14.9h.1ZM-1694,561.9c-1.7-.5-3.5-1-5.2-1.4-.2,0-.3,0-.5,0l4.1-12.8c0,4.4.6,9.1,1.6,14.4h0ZM-1675.1,518.9c-9,3.5-15,8.7-18.1,15.9-1.2-.2-2.4-.5-3.6-.7l26.5-249.4,10.2,229c-4.8,1.5-9.7,3.2-15.1,5.3h0ZM-1703,532.9c-5-.9-10.2-1.7-16-2.6l38.3-206.4-22.2,209h-.1ZM-1653.7,511.8l-9.7-218.3,36.1,212.2c-9.6,2-18,3.8-26.4,6.1h0ZM-1607,249.9c.9,1.5.4,3.7-1.5,6.6-2.9,4.3-6.7,9.2-9.3,9.6-2,.3-5.1-2-9.4-5.3-6.2-4.7-14.8-11.3-29.2-17.4,21.5-1.2,45.5,0,49.4,6.4h0ZM-1711,263.6c-2.7,4-6,5.4-10,4.3-6.1-1.7-11.7-9-12-15.5-.2-4.9,2.6-8.6,8.1-10.7,6.5-2.5,13.4-3.4,20.1-3.4s16.5,1.5,22.7,3.1l1.2.4c-9.1,3-21.6,9.2-30.2,21.9h.1Z"/>
    <path class="st2" d="M-1599.2,578.9c-2.1.3-4.3.6-6.5,1s-4.6.8-6.9,1.3-4.7,1-7.1,1.5c-2.4.6-4.7,1.1-7,1.8-2.3.6-4.6,1.2-6.8,1.9-2.2.7-4.3,1.3-6.3,2-2,.6-3.8,1.3-5.6,1.9-1.7.6-3.3,1.2-4.7,1.8-1.4.5-2.6,1-3.6,1.4-2,.8-3.1,1.3-3.1,1.3,0,0,1.2-.2,3.3-.5,2.1-.4,5.1-1,8.6-1.7,1.8-.4,3.7-.8,5.7-1.2s4.2-.9,6.4-1.4c2.2-.5,4.5-1,6.8-1.6,2.3-.5,4.7-1.1,7-1.6,9.4-2.2,18.8-4.5,25.8-6.1s6.5-1.5,8.5-2c2.1-.5,3.3-.7,3.3-.7h-3.4c-1.1,0-2.4,0-3.8,0-1.5,0-3.2.2-5,.4s-3.8.4-5.9.6l.3-.2Z"/>
    <path class="st2" d="M-1548.5,608.5c2.2,4.3,5.3,10.4,8.8,17.8,1.7,3.7,3.6,7.8,5.4,12.1.9,2.1,1.8,4.4,2.7,6.7.4,1.1.9,2.3,1.3,3.5s.8,2.4,1.3,3.6c1.6,4.8,3.3,9.8,4.7,15,1.4,5.2,2.8,10.5,4.1,15.8,1.3,5.3,2.5,10.6,3.5,15.9,1.1,5.3,2,10.5,2.6,15.5.7,5.1,1.1,10,1.3,14.7.2,4.7,0,9.1-.2,13.2-.3,4.1-.9,7.8-1.6,11s-1.6,6-2.4,8.3-1.6,4-2.1,5.1c-.6,1.2-.9,1.8-.9,1.8,0,0,.3-.6,1-1.7.6-1.1,1.5-2.8,2.5-5s2-5,2.9-8.2,1.7-7,2.3-11.1c.6-4.1.8-8.6.8-13.4s-.2-9.8-.8-15c-.5-5.2-1.3-10.5-2.2-15.8-.9-5.4-2-10.8-3.3-16.1-1.2-5.4-2.5-10.7-3.9-16s-3-10.4-4.7-15.3c-.5-1.2-.9-2.4-1.3-3.6-.5-1.2-.9-2.4-1.4-3.5-.5-1.2-1-2.3-1.5-3.4-.5-1.1-1-2.2-1.5-3.3-2-4.3-4.1-8.3-6.1-11.9-2-3.6-4-6.9-5.7-9.7-1.8-2.8-3.4-5.3-4.8-7.3s-2.4-3.5-3.2-4.6c-.8-1.1-1.2-1.6-1.2-1.6,0,0,.3.6.9,1.8s1.4,2.8,2.5,5l.2-.3Z"/>
    <path class="st2" d="M-1665,587.4c-.3-1.1-.7-2.6-1.2-4.4-.3-.9-.5-1.9-.8-2.9s-.6-2.1-.9-3.3c-.3-1.1-.6-2.3-1-3.5-.3-1.2-.7-2.4-1-3.6-.3-1.2-.7-2.4-1-3.6-.2-.6-.3-1.2-.5-1.8,0-.6-.3-1.2-.4-1.7-.3-1.1-.6-2.2-.9-3.3-.3-1-.5-2-.7-2.9s-.4-1.8-.6-2.5-.3-1.4-.5-1.9c-.3-1.1-.5-1.7-.5-1.7,0,0,0,.6-.2,1.8,0,.6,0,1.2,0,2v2.6c0,1,0,2,.2,3.1,0,.5,0,1.1.2,1.7,0,.6.2,1.1.3,1.7.2,1.2.4,2.4.7,3.6.2,1.2.6,2.5.9,3.7s.7,2.4,1.1,3.6c.4,1.2.8,2.3,1.3,3.5.9,2.2,1.8,4.3,2.7,5.9.9,1.7,1.7,3.1,2.3,4,.6.9,1,1.5,1,1.5,0,0-.2-.6-.4-1.7h0Z"/>
  </g>
  <g>
    <path class="st2" d="M-2053.5,179.3l39.7-108.9h23.8l39.7,108.9h-22.2l-29.4-84.9-29.6,84.9h-22ZM-2036.1,154.6l5.6-16.3h55.4l5.4,16.3h-66.4Z"/>
    <path class="st2" d="M-1926.1,179.3v-108.9h25l33.1,67.8,33.1-67.8h25v108.9h-21v-73.3l-28.9,58h-16.5l-28.9-57.9v73.1h-21,.1Z"/>
    <path class="st2" d="M-1785.5,179.3l39.7-108.9h23.8l39.7,108.9h-22.2l-29.4-84.9-29.6,84.9h-22ZM-1768,154.6l5.6-16.3h55.4l5.4,16.3h-66.4Z"/>
    <path class="st2" d="M-1644.2,179.3v-91.9h-31.7v-17h84.5v17h-31.7v91.9h-21.1Z"/>
    <path class="st2" d="M-1524.6,181.2c-8,0-15.2-1.6-21.8-4.8-6.5-3.2-11.7-8-15.6-14.5-3.8-6.4-5.8-14.6-5.8-24.6v-66.9h21v67.1c0,5.4.9,9.9,2.7,13.6,1.8,3.7,4.4,6.4,7.8,8.2s7.4,2.6,12.1,2.6,8.8-.9,12.2-2.6c3.4-1.8,5.9-4.5,7.7-8.2,1.8-3.7,2.6-8.2,2.6-13.6v-67.1h21v66.9c0,10-2,18.2-5.9,24.6-3.9,6.4-9.3,11.3-15.9,14.5-6.7,3.2-14.1,4.8-22.2,4.8h.1Z"/>
    <path class="st2" d="M-1450.2,179.3v-108.9h40.8c8.7,0,15.9,1.5,21.7,4.5,5.8,3,10,7,12.8,12.1,2.8,5,4.2,10.6,4.2,16.7s-1.4,11.2-4.1,16.3c-2.7,5-7,9.1-12.8,12.1-5.8,3.1-13.1,4.6-22.2,4.6h-19.4v42.6h-21ZM-1429.2,121.5h18.4c6.4,0,11.1-1.6,14.2-4.7,3-3.1,4.5-7.2,4.5-12.3s-1.5-9.1-4.4-12.1c-3-3-7.7-4.4-14.2-4.4h-18.4v33.4h0ZM-1393.7,179.3l-22.4-47.9h22.7l23.6,47.9h-24,.1Z"/>
    <path class="st2" d="M-1342.1,179.3v-108.9h71.7v17h-50.7v28.5h46v16.3h-46v30.2h50.7v17h-71.7Z"/>
  </g>
  <g>
    <path class="st2" d="M-2040.2,302.3v-50h20.5c3.5,0,6.4.5,8.8,1.6s4.2,2.6,5.4,4.5,1.8,4.2,1.8,6.7-.5,4.6-1.6,6.4c-1.1,1.7-2.5,3-4.3,4-1.8.9-3.8,1.5-5.9,1.6l1.1-.8c2.3,0,4.3.7,6.1,1.8,1.8,1.1,3.2,2.6,4.2,4.5s1.5,3.9,1.5,6.1-.6,5-1.9,7.1c-1.3,2-3.1,3.7-5.6,4.8-2.5,1.2-5.4,1.7-9,1.7h-21.2,0ZM-2030.5,273.2h9.3c2.5,0,4.5-.6,5.8-1.7s2-2.8,2-4.9-.7-3.7-2-4.8c-1.3-1.2-3.3-1.7-5.9-1.7h-9.2v13.1h0ZM-2030.5,294.5h10.1c2.6,0,4.6-.6,6-1.8,1.4-1.2,2.1-2.9,2.1-5.1s-.7-4-2.2-5.2c-1.5-1.3-3.5-1.9-6.1-1.9h-9.9v14.1h0Z"/>
    <path class="st2" d="M-1971.6,303.2c-4.8,0-9.1-1.1-12.7-3.3-3.7-2.2-6.6-5.2-8.7-9.1s-3.2-8.4-3.2-13.5,1.1-9.6,3.2-13.5,5-6.9,8.7-9.1c3.7-2.2,7.9-3.3,12.7-3.3s9.2,1.1,13,3.3c3.7,2.2,6.6,5.2,8.7,9.1s3.1,8.4,3.1,13.5-1,9.6-3.1,13.5-5,6.9-8.7,9.1-8.1,3.3-13,3.3ZM-1971.6,294.6c3.1,0,5.7-.7,8-2.1,2.2-1.4,3.9-3.4,5.1-6s1.8-5.6,1.8-9.1-.6-6.6-1.8-9.2c-1.2-2.5-2.9-4.5-5.1-5.9s-4.9-2.1-8-2.1-5.5.7-7.7,2.1-3.9,3.3-5.2,5.9c-1.2,2.5-1.9,5.6-1.9,9.2s.6,6.6,1.9,9.1c1.2,2.6,3,4.6,5.2,6s4.8,2.1,7.7,2.1Z"/>
    <path class="st2" d="M-1944.9,302.3l15.8-25.3-15.9-24.6h11.1l10.9,17.1,10.1-17.1h10.9l-15.7,25.1,16.1,24.9h-11.1l-11.1-17.4-10.1,17.4h-11Z"/>
    <path class="st2" d="M-1894.5,302.3v-50h9.6v50h-9.6Z"/>
    <path class="st2" d="M-1875,302.3v-50h9.6l23,34.5v-34.5h9.6v50h-9.6l-23-34.4v34.4h-9.6Z"/>
    <path class="st2" d="M-1801.1,303.2c-4.7,0-8.8-1.1-12.4-3.2-3.5-2.1-6.3-5.1-8.2-8.9-2-3.8-2.9-8.3-2.9-13.4s1-9.7,3-13.6,4.9-7,8.6-9.2,8.2-3.4,13.5-3.4,10.8,1.4,14.7,4.2c3.9,2.8,6.4,6.7,7.5,11.7h-10.8c-.7-2.2-2-3.9-4-5.2-2-1.3-4.5-1.9-7.5-1.9s-6,.7-8.2,2.1c-2.3,1.4-4,3.4-5.2,6s-1.8,5.6-1.8,9.2.6,6.7,1.7,9.2c1.2,2.5,2.9,4.4,5.1,5.7,2.2,1.3,4.8,2,7.8,2,4.4,0,7.7-1.2,10-3.5,2.3-2.4,3.6-5.4,4-9.2h-12.3v-7.2h22v27.6h-8.9l-.8-6.4c-1,1.6-2.3,2.9-3.7,4-1.4,1.1-3,1.9-4.9,2.4s-4,.8-6.4.8v.2Z"/>
  </g>
  <g>
    <path class="st2" d="M-1536,302.3l-13.1-50h10.3l8.7,39.1,10.2-39.1h10.7l9.9,39.1,8.8-39.1h10.4l-13.5,50h-11.5l-9.6-36.4-9.9,36.4h-11.5,0Z"/>
    <path class="st2" d="M-1452.6,303.2c-4.8,0-9.1-1.1-12.7-3.3-3.7-2.2-6.6-5.2-8.7-9.1s-3.2-8.4-3.2-13.5,1.1-9.6,3.2-13.5,5-6.9,8.7-9.1c3.7-2.2,7.9-3.3,12.7-3.3s9.2,1.1,13,3.3c3.7,2.2,6.6,5.2,8.7,9.1s3.1,8.4,3.1,13.5-1,9.6-3.1,13.5-5,6.9-8.7,9.1-8.1,3.3-13,3.3ZM-1452.6,294.6c3.1,0,5.7-.7,8-2.1,2.2-1.4,3.9-3.4,5.1-6s1.8-5.6,1.8-9.1-.6-6.6-1.8-9.2c-1.2-2.5-2.9-4.5-5.1-5.9s-4.9-2.1-8-2.1-5.5.7-7.7,2.1-3.9,3.3-5.2,5.9c-1.2,2.5-1.9,5.6-1.9,9.2s.6,6.6,1.9,9.1c1.2,2.6,3,4.6,5.2,6s4.8,2.1,7.7,2.1Z"/>
    <path class="st2" d="M-1419.6,302.3v-50h18.7c4,0,7.3.7,10,2.1,2.6,1.4,4.6,3.2,5.9,5.5s1.9,4.9,1.9,7.7-.6,5.2-1.9,7.5-3.2,4.2-5.9,5.6c-2.6,1.4-6,2.1-10.2,2.1h-8.9v19.6h-9.6ZM-1410,275.8h8.4c3,0,5.1-.7,6.5-2.1s2.1-3.3,2.1-5.6-.7-4.2-2-5.5c-1.4-1.4-3.5-2-6.5-2h-8.4v15.4-.2ZM-1393.7,302.3l-10.3-22h10.4l10.9,22h-11Z"/>
    <path class="st2" d="M-1374.5,302.3v-50h9.6v42.5h21.9v7.5h-31.6,0Z"/>
    <path class="st2" d="M-1334.7,302.3v-50h16.7c5.8,0,10.5,1,14.4,3.1,3.8,2.1,6.6,5,8.5,8.7,1.8,3.7,2.7,8.1,2.7,13.2s-.9,9.4-2.7,13.2c-1.8,3.7-4.7,6.6-8.5,8.7s-8.6,3.1-14.4,3.1h-16.7ZM-1325.1,294.1h6.6c4,0,7.3-.7,9.6-2,2.4-1.3,4.1-3.2,5.1-5.7s1.5-5.5,1.5-9-.5-6.5-1.5-9-2.7-4.4-5.1-5.7c-2.4-1.3-5.6-2-9.6-2h-6.6v33.5h0Z"/>
  </g>
  <path class="st4" d="M-1004.4,2.4v292.7c0,284.8,166.8,549.9,442.2,703h0C-286.7,845-119.9,579.9-119.9,295.1V2.4h-884.5Z"/>
  <path class="st3" d="M-559.6,999.8l-5-2.8c-280.2-155.8-447.5-421.9-447.5-712V-18H-107.1v303c0,290.1-167.3,556.2-447.5,712l-5,2.8ZM-991.5,2.6v282.4c0,280.8,161.4,538.7,431.9,691.2C-289,823.7-127.6,565.8-127.6,285V2.6h-863.9Z"/>
  <g>
    <path class="st2" d="M-953.5,179.3l39.7-108.9h23.8l39.7,108.9h-22.2l-29.4-84.9-29.6,84.9h-22ZM-936.1,154.6l5.6-16.3h55.4l5.4,16.3h-66.4Z"/>
    <path class="st2" d="M-826.1,179.3v-108.9h25l33.1,67.8,33.1-67.8h25v108.9h-21v-73.3l-28.9,58h-16.5l-28.9-57.9v73.1h-21,.1Z"/>
    <path class="st2" d="M-685.5,179.3l39.7-108.9h23.8l39.7,108.9h-22.2l-29.4-84.9-29.6,84.9h-22ZM-668,154.6l5.6-16.3h55.4l5.4,16.3h-66.4Z"/>
    <path class="st2" d="M-544.2,179.3v-91.9h-31.7v-17h84.5v17h-31.7v91.9h-21.1Z"/>
    <path class="st2" d="M-424.6,181.2c-8,0-15.2-1.6-21.8-4.8-6.5-3.2-11.7-8-15.6-14.5-3.8-6.4-5.8-14.6-5.8-24.6v-66.9h21v67.1c0,5.4.9,9.9,2.7,13.6,1.8,3.7,4.4,6.4,7.8,8.2s7.4,2.6,12.1,2.6,8.8-.9,12.2-2.6c3.4-1.8,5.9-4.5,7.7-8.2,1.8-3.7,2.6-8.2,2.6-13.6v-67.1h21v66.9c0,10-2,18.2-5.9,24.6-3.9,6.4-9.3,11.3-15.9,14.5-6.7,3.2-14.1,4.8-22.2,4.8h0Z"/>
    <path class="st2" d="M-350.2,179.3v-108.9h40.8c8.7,0,15.9,1.5,21.7,4.5,5.8,3,10,7,12.8,12.1,2.8,5,4.2,10.6,4.2,16.7s-1.4,11.2-4.1,16.3c-2.7,5-7,9.1-12.8,12.1-5.8,3.1-13.1,4.6-22.2,4.6h-19.4v42.6h-21ZM-329.2,121.5h18.4c6.4,0,11.1-1.6,14.2-4.7,3-3.1,4.5-7.2,4.5-12.3s-1.5-9.1-4.4-12.1c-3-3-7.7-4.4-14.2-4.4h-18.4v33.4h-.1ZM-293.7,179.3l-22.4-47.9h22.7l23.6,47.9h-24,0Z"/>
    <path class="st2" d="M-242.1,179.3v-108.9h71.7v17h-50.7v28.5h46v16.3h-46v30.2h50.7v17h-71.7Z"/>
  </g>
  <g>
    <path class="st2" d="M-951.4,312.9v-67.6h27.7c4.7,0,8.7.7,11.9,2.2s5.7,3.5,7.3,6.1c1.6,2.6,2.5,5.6,2.5,9s-.7,6.3-2.2,8.6-3.4,4.1-5.8,5.4c-2.4,1.3-5.1,2-7.9,2.2l1.5-1.1c3.1.1,5.8,1,8.3,2.5,2.4,1.5,4.3,3.5,5.7,6s2.1,5.3,2.1,8.2-.9,6.8-2.6,9.6c-1.7,2.8-4.2,4.9-7.5,6.5s-7.4,2.4-12.1,2.4h-28.9ZM-938.3,273.5h12.6c3.4,0,6-.8,7.8-2.3s2.7-3.7,2.7-6.6-.9-4.9-2.7-6.5-4.4-2.4-7.9-2.4h-12.5v17.8h0ZM-938.3,302.3h13.6c3.5,0,6.2-.8,8.1-2.4,1.9-1.6,2.9-3.9,2.9-7s-1-5.4-3-7.1-4.7-2.6-8.2-2.6h-13.4v19h0Z"/>
    <path class="st2" d="M-858.6,314.1c-6.5,0-12.3-1.5-17.2-4.4-5-3-8.9-7.1-11.8-12.3-2.9-5.2-4.3-11.3-4.3-18.2s1.4-13,4.3-18.2c2.9-5.2,6.8-9.4,11.8-12.3,5-3,10.7-4.4,17.2-4.4s12.5,1.5,17.5,4.4c5.1,3,9,7.1,11.8,12.3,2.8,5.3,4.2,11.3,4.2,18.2s-1.4,13-4.2,18.2c-2.8,5.3-6.7,9.4-11.8,12.3-5.1,3-10.9,4.4-17.5,4.4ZM-858.6,302.4c4.2,0,7.8-.9,10.8-2.9,3-1.9,5.3-4.6,7-8.1s2.5-7.6,2.5-12.4-.8-9-2.5-12.4c-1.6-3.4-4-6.1-7-8s-6.6-2.8-10.8-2.8-7.5.9-10.5,2.8-5.3,4.5-7,8c-1.7,3.4-2.5,7.6-2.5,12.4s.8,8.9,2.5,12.4,4,6.2,7,8.1,6.5,2.9,10.5,2.9Z"/>
    <path class="st2" d="M-822.4,312.9l21.4-34.3-21.5-33.3h15.1l14.8,23.1,13.6-23.1h14.8l-21.3,33.9,21.7,33.7h-15.1l-15-23.5-13.6,23.5h-14.9Z"/>
    <path class="st2" d="M-754.2,312.9v-67.6h13v67.6h-13Z"/>
    <path class="st2" d="M-727.9,312.9v-67.6h13l31.1,46.7v-46.7h13v67.6h-13l-31.1-46.6v46.6h-13Z"/>
    <path class="st2" d="M-627.8,314.1c-6.4,0-12-1.4-16.8-4.3s-8.5-6.9-11.2-12.1c-2.6-5.2-4-11.2-4-18.1s1.4-13.1,4.1-18.4c2.7-5.3,6.6-9.5,11.7-12.5,5.1-3,11.1-4.5,18.2-4.5s14.6,1.9,19.9,5.7c5.2,3.8,8.6,9.1,10.2,15.8h-14.6c-1-3-2.8-5.3-5.4-7-2.6-1.7-6-2.6-10.1-2.6s-8.1,1-11.2,2.9c-3.1,1.9-5.4,4.6-7,8.1s-2.4,7.6-2.4,12.5.8,9.1,2.4,12.5c1.6,3.4,3.9,6,6.9,7.8s6.5,2.7,10.6,2.7c5.9,0,10.4-1.6,13.5-4.8,3.1-3.2,4.9-7.3,5.5-12.4h-16.6v-9.8h29.8v37.4h-12l-1.1-8.6c-1.4,2.1-3.1,3.9-5,5.4-1.9,1.4-4.1,2.5-6.6,3.3-2.5.7-5.4,1.1-8.7,1.1h-.1Z"/>
  </g>
  <g>
    <path class="st2" d="M-497.7,312.9l-17.7-67.6h13.9l11.8,52.9,13.8-52.9h14.5l13.4,52.9,11.9-52.9h14.1l-18.3,67.6h-15.6l-13-49.3-13.3,49.3h-15.6.1Z"/>
    <path class="st2" d="M-384.7,314.1c-6.5,0-12.3-1.5-17.2-4.4-5-3-8.9-7.1-11.8-12.3-2.9-5.2-4.3-11.3-4.3-18.2s1.4-13,4.3-18.2c2.9-5.2,6.8-9.4,11.8-12.3,5-3,10.7-4.4,17.2-4.4s12.5,1.5,17.5,4.4c5.1,3,9,7.1,11.8,12.3,2.8,5.3,4.2,11.3,4.2,18.2s-1.4,13-4.2,18.2c-2.8,5.3-6.7,9.4-11.8,12.3-5.1,3-10.9,4.4-17.5,4.4ZM-384.7,302.4c4.2,0,7.8-.9,10.8-2.9,3-1.9,5.3-4.6,7-8.1s2.5-7.6,2.5-12.4-.8-9-2.5-12.4c-1.6-3.4-4-6.1-7-8s-6.6-2.8-10.8-2.8-7.5.9-10.5,2.8-5.3,4.5-7,8c-1.7,3.4-2.5,7.6-2.5,12.4s.8,8.9,2.5,12.4,4,6.2,7,8.1,6.5,2.9,10.5,2.9Z"/>
    <path class="st2" d="M-340.1,312.9v-67.6h25.3c5.4,0,9.9.9,13.5,2.8,3.6,1.9,6.2,4.4,8,7.5,1.7,3.1,2.6,6.6,2.6,10.4s-.9,7-2.6,10.1-4.3,5.6-7.9,7.5-8.2,2.9-13.8,2.9h-12.1v26.5h-13ZM-327,277h11.4c4,0,6.9-1,8.8-2.9s2.8-4.5,2.8-7.6-.9-5.7-2.8-7.5-4.8-2.8-8.8-2.8h-11.4v20.8ZM-305,312.9l-13.9-29.8h14.1l14.7,29.8h-14.9Z"/>
    <path class="st2" d="M-279.1,312.9v-67.6h13v57.5h29.7v10.1h-42.7Z"/>
    <path class="st2" d="M-225.2,312.9v-67.6h22.6c7.8,0,14.3,1.4,19.4,4.2,5.2,2.8,9,6.7,11.5,11.8s3.7,11,3.7,17.8-1.2,12.8-3.7,17.8c-2.5,5.1-6.3,9-11.5,11.8s-11.6,4.2-19.4,4.2h-22.6ZM-212.1,301.7h8.9c5.5,0,9.8-.9,13-2.7,3.2-1.8,5.5-4.4,6.9-7.8s2-7.4,2-12.1-.7-8.8-2-12.2c-1.4-3.4-3.6-6-6.9-7.8-3.2-1.8-7.6-2.7-13-2.7h-8.9v45.3h0Z"/>
  </g>
  <path class="st2" d="M-570.3,752.5c-6.2,13.6-18.4,21.9-33,23.9-16.9,2.3-33.9,1.1-50.7-2.6-37.2-8.1-81.4-35.1-78.4-75.8l1.4-19.5c-12.8-7.6-19.6-20.6-19.2-35.8,1.3-51.5,40.5-95.1,80-125.1,5.3-21,10.5-40.8,17-60.8,5.4-12.3,15.5-19.8,29.2-18.8s29.5,4.8,45.5,10.3l29.2-97.9c.9-3,6.6-4.2,9-2.6l34.8,135.7c25.7-4.1,54.4-14.3,66.5,7.6,6,19.2,11.6,38,15.1,57.8.9,5.3.5,10.2,3.7,15.2,22.5,34.9,35,66.9,45.4,107.3,9.5,37.1,11.2,74.3-20.7,99.3-30.1,23.6-68,35.2-106.3,33.7-30.6-1.2-57.4-20.5-60.8-52.4l-7.6.6h-.1ZM-518.6,485.8c.5,1.4,6.2.2,5.8-1.6l-29.2-112.4-10.3,85.9c15.5,7.3,28,12.2,33.8,28h0ZM-559.1,454.3l8-71.5-20.6,67.1c4,2.5,8.5,4.4,12.6,4.4ZM-583.3,463.8c1.3-1.9,1.6-5.3.9-7.5-15.9-4.2-37.3-11.8-51.8-6.5l50.9,13.9h0ZM-601.3,532.9l16.3-62.1-56.1-15-3.9,6.7c-5.6,18.2-10.6,36.2-15.2,55.2,20.6,3.6,39.1,9,58.8,15.2h.1ZM-562.1,470.5c1.1-1.4,1.6-5.7.2-6.2l-11.7-4.5c-1.4,1.7-2.4,5.1-2.1,6.9l13.6,3.9h0ZM-534.5,479.5c-4.3-5.4-11.4-8.9-17.6-11.9-1.1.1-2.9,2.2-2.8,3.4s2,2.8,3.1,3.1l17.4,5.3h-.1ZM-567.5,504.4c2.7-8.5,3.1-17.7,4.3-26.5l-14.9-5.1-15.3,57c-.4,1.6-.8,4.6,0,5.6s2.8,1.7,4.1,2.1l12,4.2,2.7.8c3.2.9-7.5-23.8,7.1-38.1h0ZM-528.4,489.5l-27.7-9.1-2.8,20.1,30.5-11.1h0ZM-563.1,514c35.1-11.7,68.6-19.4,103.4-25.8-10.2-1.2-19.4,0-29.3,1.3-18.8,3.3-37,7.5-54.9,14s-14.3,5.4-19.2,10.4h0ZM-541.9,567.4c-6.6,1.9-10.9-3.6-12.7-7.9-3.5-8.7-6.3-17.1-4.9-26.7.7-5,6.1-9.2,11.1-10.8,32.2-10.3,64.5-17.9,98.1-22.4,1.3-.2,3.9-1.1,3.3-1.9l-2.2-3.1c-38.3,5.1-76,13.7-112.5,26.6-4.2,1.6-5.8,4.6-5.4,9,1.5,16.1,5.1,31.7,10.7,47.2,40.4-13.9,79.9-22.9,121.5-29.1.7-.8,1.5-2.9.7-3.4s-3-.9-4-.8c-35.1,5.8-68.9,13.1-103.8,23.1v.2ZM-540.9,564.3c35.4-10.7,69.8-17.6,105.9-23.7l-10.2-38.7c-36.6,4.8-70.7,12.6-105,24.1-10.5,3.5-6.6,21-.9,33.6,1.4,3.1,5.7,6.2,10.3,4.8h0ZM-557.3,591.8c-3.8-4.9-6.1-9.2-7.5-14.2l-6.1-21.4-18.7,65.8c-2.1,7.4-4.7,14.7-9,21-8.2,11.8-23.8,13.6-35.3,4.8-9.2-7-11.6-19.7-8.3-31.1l23.8-82c-14.2-3.8-26.5-6.6-40.3-8.9,12.8,12.9,19.3,28.8,18,47.2-.4,29.5-12.1,57.2-31,79.6-7,7.7-15.3,12.7-25.5,14.6-5.9,8-13.6,12.5-23.6,13l-1.3,14.2c12.1-9.1,23.2-14,37.2-16.2,26.6-4.1,53.3-.7,78.9,9.6,6.2-37.8,19-71,48.9-95.8l-.2-.2ZM-688.4,638.9c1.2-.7,1.6-5,.6-6.1-3.5-3.9-8.8-8.7-11-14.1,5.1,3.5,9.4,7.7,14,11.8,8.9-7.1-2.4-12-4.9-22.4l11.6,12.5,5.8-6.6c5.3-6,10.2-12.8,12-21,4-18.6,4.2-50.7-7.1-65.2-22.1,17.5-40.7,36.7-55.1,60-13.2,21.3-25.4,55.6-11.5,75.3,5.3,7.6,14.7,10.5,22.7,6.1,7.5-4.2,14.1-10.9,16.4-19.1-6.4-.3-11.3-.6-16.7-2.1l16.4-1c1.1,0,2.7-.7,3.4-1.2s-.5-3.1-1.2-3.5l-13.5-9.3c7.6-1.4,13.7,8.8,18,6h0ZM-578.3,552.7l-21.8,75.9c-2,7-6.6,13.3-13.2,15.7-6.2,2.3-12.7.4-17.1-4-3.5-3.4-6.5-10.2-5.1-15.9,5-20.7,11-40.3,17.1-60.6l7-23.4c.4-1.3-.2-3.5-1.2-4s-3.7.8-4.1,2.3l-22.6,78.5c-2.9,9.9-1.3,20.6,6.4,27.4,5.6,4.9,13.2,7,20.5,4.9,5.4-1.6,11.8-6.4,14.4-13,5.8-14.8,9.9-29.8,14.2-45.3l10.7-38.4c.3-1.2-1.1-3.4-2.2-3.5s-2.5,1.9-2.9,3.4h-.1ZM-585,546.5l-13.4,47.2c-3.7,13.1-7.2,25.9-12,38.5-2,5.2-8.2,5.6-11.9,3.8s-6.3-7-4.7-12.3l23.5-82.1c.3-1.1-1.7-3.4-2.8-3.2s-2.1,1.7-2.5,3.3l-19.2,65c-2.1,7.3-4.3,14.6-4.4,21.9s5.4,11.9,11,13.3c15.4,3.9,18-13.3,23.1-28.6l18.2-64.7c-1-1.1-3.2-2.1-4.8-2.2h0ZM-688.8,655.4c11-4,15.6-12.3,21.7-20.1,10-18.1,17.1-37.6,19.4-58.2.9-13.4-1.3-26.2-9.5-36.5,2.1,14.8,2.9,28.9,1.9,43.5-2,13.6-6.3,26.2-14.9,37-6.9,11.2-13.2,22.3-18.7,34.4h0ZM-432.2,562.6c.2-2.9,0-4.7-.6-7.4-40.6,5.7-79.5,15.2-118.8,28.1-.3.6,0,3.7.9,3.7h3.1c37-14.7,74.9-23.7,115.4-24.4h0ZM-512.8,759.9c-9.7-3.1-15.1-9.9-22.7-14.8-3.4,3.4-3.4,8.4-1.3,12.4l5.8,10.8c-4.7-3.8-6.8-7.2-10.1-12l-8,9.3c8.5,15.8,22.8,25.8,40.9,27.7,38.3,4.1,77.7-7.8,107.8-32.1,18-14.5,24.3-36.7,21-59.2-6.5-44.5-21.9-86.6-44.3-125.3-2.9-5.1-6.3-6.9-12.4-6.7-24.7.6-48.5,5.3-72.4,11.6-15.7,4.2-30.1,8.9-44.5,16.3,2.3,24.8,6.1,47.6,11.3,71.5,3.5,16.4,5.8,32.1,8.5,48.9,5.8-5,8.9-8.8,15.1-11.7l-11.8,13.5c-2.1,2.4-4.3,6.7-2.1,9.7l22.1,4.5.5,1.5-22.6-2.4c-4,3.8-1.7,9,1.8,11.9l17.4,14.7h0ZM-558.7,707.2l13.1,11.4c2.4-2,3-5.7,1.3-8.5l-12.7-20.4,1.1-.9,13.3,16.2c-.6-35.4-10.5-69-13.5-104.4-31.1,29.9-46.3,71.2-41.2,113.1,1.4,11.5,8.5,23.1,18.2,28.4,11.7,6.3,24.5-2,29.5-12.5l-20.4-10.7c10-.2,19.2,9.1,23.4,5.8s-10.7-9.8-12.1-17.5h0ZM-650,764c24.8,5.3,56.4,8.4,70.6-12.9-18.8-7.9-27.2-31.6-26.8-51.9,0-2.8-2.5-5-5.1-6-21.3-7.4-42.9-11.5-65.8-9.3-7.4,8.7-13.6,17.4-22.3,26.1,4.2-9.2,10.7-16.2,17.4-25.1-15.2-1.3-17.9,11.8-28.7,21.5,2.5-6.9,5.9-10.7,9.9-17.2-8.1,3.1-14.6,6.8-21.6,11.9,1.4,36,39.4,55.7,72.4,62.8h0ZM-551.5,757.6c7.7-7.6,11.7-17.2,11.3-27.8-6.5,13.3-18,14.5-11.3,27.8Z"/>
  <rect class="st2" x="362.1" y="788.7" width="295.4" height="42.8"/>
  <path class="st3" d="M692,873.4c29.5-52.2,376.6-88,312.9-323.7-94.1-348.2,23.5-387.1,23.5-387.1l-76.1-82.7s-47.8,44.5-124.6,32.6c-96.9-15-112.1-48-135.7-80.6-23.5,32.6-38.8,65.5-135.7,80.6-76.8,11.9-124.6-32.6-124.6-32.6l-76.1,82.7s117.7,38.8,23.5,387.1c-63.7,235.8,283.4,271.5,312.9,323.7Z"/>
  <path class="st4" d="M692,890.6l-7.4-13.1c-6.8-12.1-42.5-26.4-80.3-41.4-105.1-42-281.1-112.2-233.4-288.7,91-336.6-16.9-376.5-18-376.8l-12.5-4.1,90.8-98.6,6.2,5.8c.5.4,46,41.5,117.5,30.4,85.2-13.2,104.2-40.3,124.3-68.9,1.9-2.8,3.9-5.5,5.9-8.3l6.9-9.5,6.9,9.5c2,2.8,3.9,5.5,5.8,8.3,20.1,28.6,39,55.7,124.3,68.9,71.5,11.1,117.1-30,117.5-30.4l6.2-5.7,90.8,98.6-12.5,4.1c-1,.4-108.2,43.1-18,376.8,47.7,176.5-128.2,246.7-233.4,288.7-37.8,15.1-73.4,29.3-80.3,41.4l-7.4,13.1h0ZM369.2,160.4c28.5,19.7,97.1,99.5,18.2,391.5-43.8,161.9,117,226.1,223.3,268.5,37.7,15,66.8,26.7,81.4,39.9,14.6-13.3,43.7-24.9,81.4-39.9,106.4-42.4,267.1-106.6,223.3-268.5-78.9-292-10.4-371.8,18.2-391.5l-63.4-68.9c-16.2,12.1-60.8,39.3-125.1,29.3-90.7-14.1-113.5-44.5-134.4-74.3-20.9,29.8-43.7,60.2-134.4,74.3-64.2,10-108.9-17.3-125.1-29.3l-63.4,68.9h0Z"/>
  <rect class="st4" x="404.8" y="432.7" width="576.7" height="19.3"/>
  <rect class="st4" x="682.3" y="39.1" width="19.3" height="827.2"/>
  <path class="st2" d="M555,356.2c-2.5,5.6-7.6,9-13.5,9.8s-13.9.4-20.8-1.1c-15.3-3.3-33.4-14.4-32.2-31.1l.6-8c-5.3-3.1-8.1-8.4-7.9-14.7.5-21.1,16.6-39,32.8-51.3,2.2-8.6,4.3-16.8,7-25,2.2-5.1,6.4-8.1,12-7.7s12.1,2,18.7,4.2l12-40.2c.4-1.2,2.7-1.7,3.7-1.1l14.3,55.7c10.5-1.7,22.3-5.9,27.3,3.1,2.5,7.9,4.8,15.6,6.2,23.7s.2,4.2,1.5,6.2c9.3,14.3,14.4,27.5,18.6,44.1s4.6,30.5-8.5,40.8c-12.4,9.7-27.9,14.4-43.7,13.8-12.6-.5-23.6-8.4-25-21.5l-3.1.2h0ZM576.2,246.7c.2.6,2.6,0,2.4-.6l-12-46.1-4.2,35.3c6.4,3,11.5,5,13.9,11.5h-.1ZM559.6,233.8l3.3-29.4-8.4,27.6c1.6,1,3.5,1.8,5.2,1.8h0ZM549.7,237.7c.5-.8.7-2.2.4-3.1-6.5-1.7-15.3-4.8-21.3-2.7l20.9,5.7h0ZM542.2,266.1l6.7-25.5-23-6.1-1.6,2.7c-2.3,7.5-4.4,14.9-6.3,22.6,8.5,1.5,16.1,3.7,24.2,6.2h0ZM558.4,240.4c.4-.6.6-2.3,0-2.6l-4.8-1.9c-.6.7-1,2.1-.8,2.8l5.6,1.6h0ZM569.7,244.1c-1.8-2.2-4.7-3.7-7.2-4.9-.4,0-1.2.9-1.2,1.4s.8,1.1,1.3,1.3l7.1,2.2h0ZM556.2,254.4c1.1-3.5,1.3-7.3,1.8-10.9l-6.1-2.1-6.3,23.4c-.2.6-.3,1.9,0,2.3s1.1.7,1.7.9l4.9,1.7,1.1.3c1.3.4-3.1-9.8,2.9-15.6h0ZM572.2,248.2l-11.4-3.7-1.2,8.3,12.5-4.6h.1ZM557.9,258.3c14.4-4.8,28.2-8,42.4-10.6-4.2-.5-8,0-12,.5-7.7,1.3-15.2,3.1-22.6,5.8-2.9,1.1-5.9,2.2-7.9,4.3h0ZM566.7,280.2c-2.7.8-4.5-1.5-5.2-3.3-1.4-3.6-2.6-7-2-11s2.5-3.8,4.6-4.4c13.2-4.2,26.5-7.4,40.3-9.2s1.6-.4,1.4-.8l-.9-1.3c-15.7,2.1-31.2,5.6-46.2,10.9-1.7.7-2.4,1.9-2.2,3.7.6,6.6,2.1,13,4.4,19.4,16.6-5.7,32.8-9.4,49.9-11.9.3-.3.6-1.2.3-1.4s-1.2-.4-1.6-.3c-14.4,2.4-28.3,5.4-42.6,9.5h-.2ZM567.1,279c14.5-4.4,28.7-7.2,43.5-9.7l-4.2-15.9c-15,2-29,5.2-43.1,9.9-4.3,1.5-2.7,8.6-.4,13.8.6,1.3,2.3,2.5,4.2,2h0ZM560.3,290.3c-1.6-2-2.5-3.8-3.1-5.8l-2.5-8.8-7.7,27c-.9,3.1-1.9,6-3.7,8.6-3.4,4.8-9.8,5.6-14.5,2-3.8-2.9-4.8-8.1-3.4-12.8l9.8-33.7c-5.8-1.6-10.9-2.7-16.6-3.7,5.3,5.3,7.9,11.8,7.4,19.4-.2,12.1-5,23.5-12.7,32.7-2.9,3.2-6.3,5.2-10.5,6-2.4,3.3-5.6,5.1-9.7,5.3l-.5,5.8c5-3.7,9.5-5.8,15.3-6.6,10.9-1.7,21.9-.3,32.4,3.9,2.5-15.5,7.8-29.1,20.1-39.3h0ZM506.5,309.6c.5-.3.6-2.1.2-2.5-1.4-1.6-3.6-3.6-4.5-5.8,2.1,1.5,3.9,3.1,5.7,4.8,3.7-2.9-1-4.9-2-9.2l4.8,5.1,2.4-2.7c2.2-2.5,4.2-5.3,4.9-8.6,1.6-7.6,1.7-20.8-2.9-26.8-9.1,7.2-16.7,15.1-22.6,24.7-5.4,8.7-10.4,22.8-4.7,30.9,2.2,3.1,6,4.3,9.3,2.5,3.1-1.7,5.8-4.5,6.8-7.9-2.6-.1-4.6-.3-6.8-.9l6.7-.4c.5,0,1.1-.3,1.4-.5s-.2-1.3-.5-1.4l-5.6-3.8c3.1-.6,5.6,3.6,7.4,2.5h0ZM551.7,274.2l-9,31.2c-.8,2.9-2.7,5.5-5.4,6.5s-5.2.2-7-1.6c-1.4-1.4-2.7-4.2-2.1-6.5,2.1-8.5,4.5-16.6,7-24.9l2.9-9.6c.2-.5,0-1.4-.5-1.7s-1.5.3-1.7.9l-9.3,32.2c-1.2,4.1-.5,8.5,2.6,11.3,2.3,2,5.4,2.9,8.4,2s4.8-2.6,5.9-5.3c2.4-6.1,4-12.2,5.8-18.6l4.4-15.8c0-.5-.4-1.4-.9-1.4s-1,.8-1.2,1.4h0ZM548.9,271.6l-5.5,19.4c-1.5,5.4-3,10.6-4.9,15.8s-3.4,2.3-4.9,1.6-2.6-2.9-1.9-5l9.6-33.7c0-.4-.7-1.4-1.1-1.3s-.9.7-1,1.3l-7.9,26.7c-.9,3-1.8,6-1.8,9s2.2,4.9,4.5,5.5c6.3,1.6,7.4-5.5,9.5-11.7l7.5-26.6c-.4-.5-1.3-.9-2-.9h0ZM506.4,316.3c4.5-1.6,6.4-5,8.9-8.3,4.1-7.4,7-15.4,8-23.9.4-5.5-.5-10.8-3.9-15,.9,6.1,1.2,11.9.8,17.9-.8,5.6-2.6,10.8-6.1,15.2-2.8,4.6-5.4,9.2-7.7,14.1h0ZM611.7,278.3c0-1.2,0-1.9-.3-3-16.7,2.3-32.7,6.3-48.8,11.5,0,.3,0,1.5.4,1.5h1.3c15.2-6,30.8-9.7,47.4-10h0ZM578.6,359.3c-4-1.3-6.2-4.1-9.3-6.1-1.4,1.4-1.4,3.4-.5,5.1l2.4,4.4c-1.9-1.6-2.8-2.9-4.1-4.9l-3.3,3.8c3.5,6.5,9.4,10.6,16.8,11.4,15.7,1.7,31.9-3.2,44.3-13.2,7.4-6,10-15.1,8.6-24.3-2.7-18.3-9-35.5-18.2-51.5-1.2-2.1-2.6-2.8-5.1-2.8-10.1.3-19.9,2.2-29.7,4.8-6.4,1.7-12.4,3.7-18.3,6.7.9,10.2,2.5,19.6,4.6,29.3,1.5,6.7,2.4,13.2,3.5,20.1,2.4-2.1,3.7-3.6,6.2-4.8l-4.8,5.5c-.8,1-1.8,2.8-.9,4l9.1,1.9.2.6-9.3-1c-1.6,1.6-.7,3.7.7,4.9l7.2,6h-.1ZM559.8,337.6l5.4,4.7c1-.8,1.2-2.4.5-3.5l-5.2-8.4.4-.4,5.5,6.7c-.3-14.5-4.3-28.3-5.5-42.9-12.8,12.3-19,29.2-16.9,46.4.6,4.7,3.5,9.5,7.5,11.6s10.1-.8,12.1-5.1l-8.4-4.4c4.1,0,7.9,3.7,9.6,2.4s-4.4-4-5-7.2h0ZM522.3,360.9c10.2,2.2,23.1,3.4,29-5.3-7.7-3.2-11.2-13-11-21.3s-1-2.1-2.1-2.4c-8.8-3.1-17.6-4.7-27-3.8-3,3.6-5.6,7.1-9.2,10.7,1.7-3.8,4.4-6.7,7.1-10.3-6.2-.5-7.4,4.8-11.8,8.8,1-2.8,2.4-4.4,4.1-7-3.3,1.3-6,2.8-8.9,4.9.6,14.8,16.2,22.9,29.7,25.8h0ZM562.7,358.3c3.2-3.1,4.8-7.1,4.6-11.4-2.7,5.5-7.4,5.9-4.6,11.4Z"/>
  <g>
    <path class="st4" d="M268.2,1011c-95.9-49.8-180.2-110.7-258.2-185.5,54.9,19.4,109.1,34,166.3,44.2-24.2-48.4-45.3-97.3-61.5-149,66.5,63.5,137.5,114.7,219,157.4-21.9,44.3-43.8,88.6-65.7,132.9h.1Z"/>
    <path class="st4" d="M1135.1,1011c95.9-49.9,180.2-110.7,258.2-185.5-54.8,19.4-109,34-166.3,44.2,24.1-48.2,46-97.3,61.5-149-66.5,63.5-137.5,114.7-219,157.4,21.9,44.3,43.8,88.6,65.7,132.9h0Z"/>
    <path class="st4" d="M268.2,1011c-19.1-27.8-37.8-55.7-54.2-85.3,41-13.7,81-28.6,119.8-47.7-21.9,44.3-43.8,88.6-65.7,132.9h0Z"/>
    <path class="st4" d="M1135.1,1011c-21.9-44.3-43.8-88.6-65.7-132.9,38.8,19.1,78.9,34,119.8,47.7-16.4,29.6-35,57.4-54.2,85.3h0Z"/>
    <path class="st4" d="M1189.3,925.8c-306.9,179.7-668.3,179.7-975.2,0,27.9-45.4,55.9-90.8,83.8-136.1,255.9,148.3,551.6,148.3,807.6,0,27.9,45.4,55.9,90.8,83.8,136.1h0Z"/>
  </g>
  <path class="st4" d="M-2104.4,1083.1v292.7c0,284.8,166.8,549.9,442.2,703h0c275.5-153.1,442.2-418.2,442.2-703v-292.7h-884.5.1Z"/>
  <path class="st3" d="M-1659.6,2080.4l-5-2.8c-280.2-155.8-447.5-421.9-447.5-712v-303h905.1v303c0,290.1-167.3,556.2-447.5,712l-5,2.8h0ZM-2091.5,1083.2v282.4c0,280.8,161.4,538.7,431.9,691.2,270.6-152.4,432-410.4,432-691.2v-282.4h-863.9Z"/>
  <g>
    <path class="st1" d="M-2054,1260l39.7-108.9h26.6l39.7,108.9h-24.6l-28.5-82.6-28.5,82.6h-24.4ZM-2036.7,1236.2l6.1-18h57.3l5.9,18h-69.3Z"/>
    <path class="st1" d="M-1924.4,1260v-108.9h28l31.7,65.5,31.4-65.5h27.8v108.9h-23.3v-69.7l-26.9,54.5h-18.5l-26.9-54.5v69.7h-23.3,0Z"/>
    <path class="st1" d="M-1781.9,1260l39.7-108.9h26.6l39.7,108.9h-24.6l-28.5-82.6-28.5,82.6h-24.4,0ZM-1764.6,1236.2l6.1-18h57.3l5.9,18h-69.3Z"/>
    <path class="st1" d="M-1638.3,1260v-90.1h-31.6v-18.8h86.7v18.8h-31.6v90.1h-23.5Z"/>
    <path class="st1" d="M-1516,1261.9c-8.1,0-15.5-1.6-22.2-4.9s-12-8.2-15.9-14.7-5.8-14.8-5.8-24.7v-66.4h23.3v66.6c0,4.9.8,9,2.4,12.4s4,6,7.2,7.7,7,2.6,11.4,2.6,8.4-.9,11.6-2.6,5.6-4.3,7.2-7.7c1.7-3.4,2.5-7.6,2.5-12.4v-66.6h23.3v66.4c0,10-2,18.2-6.1,24.7s-9.5,11.4-16.3,14.7c-6.8,3.3-14.3,4.9-22.6,4.9Z"/>
    <path class="st1" d="M-1441.2,1260v-108.9h42.3c8.9,0,16.3,1.5,22.1,4.6,5.8,3.1,10.1,7.1,13,12.2s4.3,10.7,4.3,17-1.4,11.3-4.1,16.3c-2.7,5.1-7,9.2-12.8,12.3-5.8,3.1-13.3,4.7-22.4,4.7h-19v41.8h-23.4ZM-1417.8,1201.3h17.6c5.8,0,10.1-1.4,12.8-4.2,2.7-2.8,4.1-6.6,4.1-11.4s-1.3-8.4-4-11.1-7-4.1-12.9-4.1h-17.6v30.8h0ZM-1385,1260l-21.9-47.6h25.2l23.2,47.6h-26.5Z"/>
    <path class="st1" d="M-1331.5,1260v-108.9h73v18.8h-49.6v25.7h45v18h-45v27.5h49.6v18.8h-73Z"/>
  </g>
  <path class="st2" d="M-1675.4,1854.6c-6.2,13.6-18.4,21.9-33,23.9-16.9,2.3-33.9,1.1-50.7-2.6-37.2-8.1-81.4-35.1-78.4-75.8l1.4-19.5c-12.8-7.6-19.6-20.6-19.2-35.8,1.3-51.5,40.5-95.1,80-125.1,5.3-21,10.5-40.8,17-60.8,5.4-12.3,15.5-19.8,29.2-18.8,15.4,1,29.5,4.8,45.5,10.3l29.2-97.9c.9-3,6.6-4.2,9-2.6l34.8,135.7c25.7-4.1,54.4-14.3,66.5,7.6,6,19.2,11.6,38,15.1,57.8s.5,10.2,3.7,15.2c22.5,34.9,35,66.9,45.4,107.3s11.2,74.3-20.7,99.3c-30.1,23.6-68,35.2-106.3,33.7-30.6-1.2-57.4-20.5-60.8-52.4l-7.6.6h0ZM-1623.7,1587.9c.5,1.4,6.2.2,5.8-1.6l-29.2-112.4-10.3,85.9c15.5,7.3,28,12.2,33.8,28h-.1ZM-1664.2,1556.5l8-71.5-20.6,67.1c4,2.5,8.5,4.4,12.6,4.4ZM-1688.4,1565.9c1.3-1.9,1.6-5.3.9-7.5-15.9-4.2-37.3-11.8-51.8-6.5l50.9,13.9h0ZM-1706.4,1635l16.3-62.1-56.1-15-3.9,6.7c-5.6,18.2-10.6,36.2-15.2,55.2,20.6,3.6,39.1,9,58.8,15.2h0ZM-1667.2,1572.6c1.1-1.4,1.6-5.7.2-6.2l-11.7-4.5c-1.4,1.7-2.4,5.1-2.1,6.9l13.6,3.9h0ZM-1639.6,1581.6c-4.3-5.4-11.4-8.9-17.6-11.9-1.1,0-2.9,2.2-2.8,3.4s2,2.8,3.1,3.1l17.4,5.3h0ZM-1672.6,1606.6c2.7-8.5,3.1-17.7,4.3-26.5l-14.9-5.1-15.3,57c-.4,1.6-.8,4.6,0,5.6s2.8,1.7,4.1,2.1l12,4.2,2.7.8c3.2.9-7.5-23.8,7.1-38.1h0ZM-1633.5,1591.6l-27.7-9.1-2.8,20.1,30.5-11.1h0ZM-1668.2,1616.2c35.1-11.7,68.6-19.4,103.4-25.8-10.2-1.2-19.4,0-29.3,1.3-18.8,3.3-37,7.5-54.9,14-7.1,2.6-14.3,5.4-19.2,10.4h0ZM-1646.9,1669.5c-6.6,1.9-10.9-3.6-12.7-7.9-3.5-8.7-6.3-17.1-4.9-26.7.7-5,6.1-9.2,11.1-10.8,32.2-10.3,64.5-17.9,98.1-22.4,1.3-.2,3.9-1.1,3.3-1.9l-2.2-3.1c-38.3,5.1-76,13.7-112.5,26.6-4.2,1.6-5.8,4.6-5.4,9,1.5,16.1,5.1,31.7,10.7,47.2,40.4-13.9,79.9-22.9,121.5-29.1.7-.8,1.5-2.9.7-3.4s-3-.9-4-.8c-35.1,5.8-68.9,13.1-103.8,23.1v.2ZM-1646,1666.4c35.4-10.7,69.8-17.6,105.9-23.7l-10.2-38.7c-36.6,4.8-70.7,12.6-105,24.1-10.5,3.5-6.6,21-.9,33.6,1.4,3.1,5.7,6.2,10.3,4.8h-.1ZM-1662.3,1694c-3.8-4.9-6.1-9.2-7.5-14.2l-6.1-21.4-18.7,65.8c-2.1,7.4-4.7,14.7-9,21-8.2,11.8-23.8,13.6-35.3,4.8-9.2-7-11.6-19.7-8.3-31.1l23.8-82c-14.2-3.8-26.5-6.6-40.3-8.9,12.8,12.9,19.3,28.8,18,47.2-.4,29.5-12.1,57.2-31,79.6-7,7.7-15.3,12.7-25.5,14.6-5.9,8-13.6,12.5-23.6,13l-1.3,14.2c12.1-9.1,23.2-14,37.2-16.2,26.6-4.1,53.3-.7,78.9,9.6,6.2-37.8,19-71,48.9-95.8l-.2-.2ZM-1793.5,1741c1.2-.7,1.6-5,.6-6.1-3.5-3.9-8.8-8.7-11-14.1,5.1,3.5,9.4,7.7,14,11.8,8.9-7.1-2.4-12-4.9-22.4l11.6,12.5,5.8-6.6c5.3-6,10.2-12.8,12-21,4-18.6,4.2-50.7-7.1-65.2-22.1,17.5-40.7,36.7-55.1,60-13.2,21.3-25.4,55.6-11.5,75.3,5.3,7.6,14.7,10.5,22.7,6.1,7.5-4.2,14.1-10.9,16.4-19.1-6.4-.3-11.3-.6-16.7-2.1l16.4-1c1.1,0,2.7-.7,3.4-1.2.5-.4-.5-3.1-1.2-3.5l-13.5-9.3c7.6-1.4,13.7,8.8,18,6h0ZM-1683.4,1654.9l-21.8,75.9c-2,7-6.6,13.3-13.2,15.7-6.2,2.3-12.7.4-17.1-4-3.5-3.4-6.5-10.2-5.1-15.9,5-20.7,11-40.3,17.1-60.6l7-23.4c.4-1.3-.2-3.5-1.2-4s-3.7.8-4.1,2.3l-22.6,78.5c-2.9,9.9-1.3,20.6,6.4,27.4s13.2,7,20.5,4.9c5.4-1.6,11.8-6.4,14.4-13,5.8-14.8,9.9-29.8,14.2-45.3l10.7-38.4c.3-1.2-1.1-3.4-2.2-3.5s-2.5,1.9-2.9,3.4h-.1ZM-1690.1,1648.6l-13.4,47.2c-3.7,13.1-7.2,25.9-12,38.5-2,5.2-8.2,5.6-11.9,3.8-4.3-2.1-6.3-7-4.7-12.3l23.5-82.1c.3-1.1-1.7-3.4-2.8-3.2s-2.1,1.7-2.5,3.3l-19.2,65c-2.1,7.3-4.3,14.6-4.4,21.9s5.4,11.9,11,13.3c15.4,3.9,18-13.3,23.1-28.6l18.2-64.7c-1-1.1-3.2-2.1-4.8-2.2h0ZM-1793.8,1757.5c11-4,15.6-12.3,21.7-20.1,10-18.1,17.1-37.6,19.4-58.2.9-13.4-1.3-26.2-9.5-36.5,2.1,14.8,2.9,28.9,1.9,43.5-2,13.6-6.3,26.2-14.9,37-6.9,11.2-13.2,22.3-18.7,34.4h0ZM-1537.3,1664.8c.2-2.9,0-4.7-.6-7.4-40.6,5.7-79.5,15.2-118.8,28.1-.3.6,0,3.7.9,3.7h3.1c37-14.7,74.9-23.7,115.4-24.4h0ZM-1617.9,1862c-9.7-3.1-15.1-9.9-22.7-14.8-3.4,3.4-3.4,8.4-1.3,12.4l5.8,10.8c-4.7-3.8-6.8-7.2-10.1-12l-8,9.3c8.5,15.8,22.8,25.8,40.9,27.7,38.3,4.1,77.7-7.8,107.8-32.1,18-14.5,24.3-36.7,21-59.2-6.5-44.5-21.9-86.6-44.3-125.3-2.9-5.1-6.3-6.9-12.4-6.7-24.7.6-48.5,5.3-72.4,11.6-15.7,4.2-30.1,8.9-44.5,16.3,2.3,24.8,6.1,47.6,11.3,71.5,3.5,16.4,5.8,32.1,8.5,48.9,5.8-5,8.9-8.8,15.1-11.7l-11.8,13.5c-2.1,2.4-4.3,6.7-2.1,9.7l22.1,4.5.5,1.5-22.6-2.4c-4,3.8-1.7,9,1.8,11.9l17.4,14.7h0ZM-1663.8,1809.3l13.1,11.4c2.4-2,3-5.7,1.3-8.5l-12.7-20.4,1.1-.9,13.3,16.2c-.6-35.4-10.5-69-13.5-104.4-31.1,29.9-46.3,71.2-41.2,113.1,1.4,11.5,8.5,23.1,18.2,28.4,11.7,6.3,24.5-2,29.5-12.5l-20.4-10.7c10-.2,19.2,9.1,23.4,5.8s-10.7-9.8-12.1-17.5h0ZM-1755.1,1866.1c24.8,5.3,56.4,8.4,70.6-12.9-18.8-7.9-27.2-31.6-26.8-51.9,0-2.8-2.5-5-5.1-6-21.3-7.4-42.9-11.5-65.8-9.3-7.4,8.7-13.6,17.4-22.3,26.1,4.2-9.2,10.7-16.2,17.4-25.1-15.2-1.3-17.9,11.8-28.7,21.5,2.5-6.9,5.9-10.7,9.9-17.2-8.1,3.1-14.6,6.8-21.6,11.9,1.4,36,39.4,55.7,72.4,62.8h0ZM-1656.5,1859.8c7.7-7.6,11.7-17.2,11.3-27.8-6.5,13.3-18,14.5-11.3,27.8Z"/>
  <g>
    <path class="st1" d="M-2024.1,1410.1v-108.9h46.5c7.6,0,14,1.2,19.2,3.5s9.2,5.6,11.9,9.8c2.7,4.2,4,9.2,4,14.9s-1.2,10.1-3.5,13.8c-2.3,3.7-5.5,6.6-9.4,8.6s-8.2,3.2-12.9,3.6l2.5-1.9c5.1.2,9.5,1.6,13.4,4,3.8,2.5,6.9,5.7,9.1,9.7s3.3,8.4,3.3,13.1-1.4,11.1-4.2,15.6c-2.8,4.5-6.9,7.9-12.2,10.4-5.3,2.5-11.9,3.7-19.5,3.7h-48.2ZM-2000.7,1346h19.1c5,0,8.8-1.1,11.4-3.4s4-5.5,4-9.6-1.3-7.4-4-9.7c-2.6-2.3-6.5-3.5-11.6-3.5h-19v26.3h0ZM-2000.7,1391.1h21c5.1,0,9-1.2,11.9-3.5s4.3-5.7,4.3-10.2-1.5-7.9-4.4-10.4-7-3.7-12.1-3.7h-20.7v27.8h0Z"/>
    <path class="st1" d="M-1841.4,1412c-10.7,0-20.1-2.4-28.2-7.2-8.1-4.8-14.4-11.4-19.1-19.8-4.6-8.5-6.9-18.2-6.9-29.3s2.3-20.9,6.9-29.3c4.6-8.5,11-15.1,19.1-19.8,8.1-4.8,17.5-7.2,28.2-7.2s20.1,2.4,28.2,7.2c8.1,4.8,14.5,11.4,19.1,19.8,4.6,8.5,6.9,18.2,6.9,29.3s-2.3,20.9-6.9,29.3c-4.6,8.5-11,15.1-19.1,19.8-8.1,4.8-17.6,7.2-28.2,7.2ZM-1841.4,1391c6.3,0,11.7-1.5,16.3-4.4,4.5-2.9,8-7,10.5-12.2s3.7-11.5,3.7-18.7-1.2-13.5-3.7-18.7-6-9.3-10.5-12.1c-4.5-2.9-9.9-4.3-16.3-4.3s-11.5,1.4-16,4.3c-4.6,2.9-8.1,6.9-10.6,12.1s-3.7,11.5-3.7,18.7,1.2,13.5,3.7,18.7,6,9.3,10.6,12.2c4.6,2.9,9.9,4.4,16,4.4Z"/>
    <path class="st1" d="M-1752.4,1410.1l34.7-55.2-35.2-53.7h27.1l23,35.3,20.8-35.3h26.4l-34.4,54.8,35.5,54.1h-27.1l-23.5-35.9-20.8,35.9h-26.6,0Z"/>
    <path class="st1" d="M-1608.5,1410.1v-108.9h23.3v108.9h-23.3Z"/>
    <path class="st1" d="M-1533.2,1410.1v-108.9h23.3l47.8,71.4v-71.4h23.3v108.9h-23.3l-47.8-71.3v71.3h-23.3Z"/>
    <path class="st1" d="M-1338.8,1412c-10.3,0-19.3-2.3-27-6.9s-13.7-11.1-18-19.4-6.5-18-6.5-29.1,2.2-21.1,6.7-29.7,10.8-15.3,19.1-20.2c8.2-4.9,18.1-7.3,29.6-7.3s23.9,3.1,32.4,9.3c8.5,6.2,14,14.8,16.5,25.8h-25.8c-1.6-4.4-4.3-7.7-8.2-10.1-3.9-2.4-8.9-3.6-15-3.6s-12.5,1.5-17.2,4.4c-4.7,3-8.3,7.1-10.7,12.4-2.4,5.3-3.6,11.6-3.6,18.9s1.2,13.8,3.7,19c2.4,5.2,5.9,9.1,10.4,11.7s9.9,4,16.3,4,15.7-2.3,20.3-7c4.6-4.7,7.4-10.5,8.5-17.6h-25.5v-17.4h48.9v60.8h-21.5l-1.9-12.6c-2.2,3.1-4.7,5.8-7.7,7.9-3,2.2-6.4,3.8-10.3,4.9s-8.4,1.6-13.5,1.6v.2Z"/>
  </g>
  <path class="st2" d="M856.4,570h2.2c18.5,1.7,33.1,16.5,34.4,35,2.2-.2,4.3-.2,6.5,0,1.2-18.3,15.8-33.3,34.2-34.9h1.1c0,0,4.6,0,4.6,0h1.1c18.2,1.8,32.7,16.3,34.2,34.5v6.2c-1.7,20.8-20.1,36.3-40.8,34.4-1.2,18.3-15.8,33.3-34.2,34.9h-6.8c-18.3-1.6-32.9-16.4-34.3-34.7h-.2c-2.1,0-4.1,0-6.3-.2-1.2,18.3-15.7,33.2-34.1,34.9h-7.1c-18.5-1.8-32.9-16.9-34-35-21,2-39.6-14.1-40.8-35.1,0-.6.2-1.3-.2-1.9v-1.1c.4-.6.2-1.2.2-1.9,1.1-18.7,16.3-33.9,34.9-35.1h5.2c8.9.5,17.2,4.3,23.6,10.5s10.7,15.1,11.4,24.4c2.1-.2,4.3-.2,6.5,0,1.2-18.5,16-33.5,34.6-35l1.9-.2h2.1v.4ZM777.1,638.7c1.6-15.4,12.7-28.5,27.7-32.4-.7-14.1-10.8-25.9-24.4-28.9s-34.7,8.1-37.4,25.8c-2.6,17.6,10.2,34.1,28.2,35.6,1.9.2,3.9,0,5.9,0h0ZM858.8,638.6c1.6-15.4,12.7-28.3,27.6-32.3-.5-12.2-8.4-23.2-20.1-27.6-9.6-3.6-20.3-2.3-28.9,3.8-7.6,5.4-12.6,14.2-13,23.8,14.9,4,26.1,17,27.6,32.4,2.3.2,4.5.3,6.7,0h.1ZM933.7,638.6c10,1.1,19.5-2.6,26.1-9.7,11.5-12.3,11-31.5-.8-43.2-11.7-11.7-30.8-12.2-43.1-.7-5.9,5.5-9.5,13-9.8,21.2,15,4,26,17,27.7,32.4h-.1ZM845.6,644.1c-6.1-1.6-11.5-4.7-16-8.9-6.6-6.2-10.7-14.5-11.7-23.5-2.3-.2-4.5-.2-6.7,0-1.6,15.4-12.7,28.4-27.7,32.3.8,16.6,14.5,29.6,31,29.6s30.4-12.9,31.1-29.6h0ZM927.2,644.1c-7.1-1.8-13.2-5.7-18-10.9-5.5-5.9-8.8-13.4-9.7-21.5-2.2-.2-4.5-.2-6.7,0-.7,6.9-3.3,13.3-7.5,18.8s-12.2,11.5-20.2,13.6c.8,16.7,14.6,29.6,31.1,29.6s30.3-13.1,31-29.6h0ZM804.3,613.3c-10.6,3.7-18.4,12.9-20.3,23.8,10.6-3.7,18.3-12.8,20.3-23.8ZM845.1,637c-2-11.1-9.9-20.1-20.3-23.7,2,11,9.8,20.1,20.3,23.7ZM885.9,613.3c-10.5,3.7-18.3,12.8-20.3,23.8,10.5-3.7,18.2-12.7,20.3-23.8ZM926.8,637.1c-2-10.9-9.8-20.1-20.3-23.8,2,10.9,9.7,20,20.3,23.8Z"/>
  <path class="st2" d="M835.4,355.7c-2.4-1.3-6.6-3.6-6.7-4.9s1.5-.9,1.1-3.5l-15.7-9.2-39.1-22.2-28.4-16.2c-3.3-1.9-6.2-3.8-9.6-5.5l-4.2,1.9-3.7-2.1c-.3-.2-.8-.8-.8-1.1s.5-.9.9-1.3l-1-17.9-.3-6.4c-.2-5.9-.7-11.7-1.3-17.6s-.3-3.6.2-5.2c1.7-1.4,4.6-1.4,6.1.2s.8,2.8.9,4.5l12.9-2.7c30-6.4,59.2-12.6,89.2-20.2v-4.2c0-.7.4-2.3,1-2.6,2-1.1,4.6,0,5.5,1.9v1.7l.3,3.2,22.8,5.8,21.4,5.3,47.2,11.4,2.1-1.1c0-1.6,0-2.9.6-4.4.5-.5,1.7-1.1,2.4-1.4,2-.5,3.6.4,4.5,2.2l-1,10.7-2.8,32.4c0,1,.2,1.9.5,2.9-.8,1.1-2.3,2.1-3.6,2.6l-4.9-2-47.1,29.6-43.9,27.1c-1,2.5,1.9,3.1,0,4.5l-5.3,3.8h-.1ZM840.5,221.5c-.9-.7-2.1-1-2.9,0,.9.3,1.9.3,2.9,0ZM839.5,235.4c.3-3.2.2-6,0-9.1-.6.9-.4,1.8-.4,2.8,0,2.2-.7,4.2.4,6.4h0ZM787.1,251l45.4-12.6,4.5-1.5.2-8.9-100.4,22.6,20.3,8.7,7.5-2,22.5-6.2h0ZM925.5,253.1c2-1,3.8-1.6,5.7-3l-23.2-5.7-50.2-12.3-16.3-4.2v8.9c18.9,6.9,37.8,13,57.1,18.6l14.2,3.8,12.7-6.1ZM839.1,238.7v4.7c.8-1.3.8-4.3,0-4.7ZM831.3,248.1l5.7-2.2v-6.9l-64.1,17.9-13.1,3.6,17.3,7.5,54.2-19.8h0ZM891.8,264.5l5.5,2,12.5-6-29-8.4c-13.3-3.9-26.1-8.3-39.2-13.1v6.8l6,2.2,28.4,10.7,15.8,5.9h0ZM938.1,290.1l.2-5.5.2-2.9,2.6-28.5.4-6.2-.7,2.7-2.3,26.2-.3,4.6-.2,4.6c0,1.7-.7,3.3.2,5h-.1ZM839.8,249.9c.3-.5-.2-1.6-.7-1.7-.3.5-.5,1-.5,1.3s1,.6,1.2.3h0ZM938.8,253.2l.5-3.5-1.9.2-.4,3.1,1.8.2h0ZM833,282.1c1.2-1.9,3.5-1.9,5.3-1.1,2.9,1.3,4.9,4.6,3.1,7.2l.4,3.4,15.6-7.1,17.6-7.9,17.1-7.6-30.7-11.6-19.2-7.4c-.2,2.2-3.3,2.5-5.5,1.4l-.7-1.3-5.8,2.4-47.2,17.9,7,3,42.2,17.7.3-2.2c-1.8-.8-2.2-2.6-1.3-4.1l1.7-2.7h.1ZM930,263.8l4.3-2.3,1.1-9.2c0-.5,0-1.1-.3-1.5l-8.2,3.8-11.2,5.4,14.2,3.9h.1ZM744,262.8l9.6-2.6-19.7-8.5.8,10.9,3.8,1.7,5.5-1.5h0ZM730.1,269.3c.2-5.7,0-11.5-1-17.1,0,5.8.2,11.3,1,17.1ZM732.9,260.5l-.6-6.4c-.5,0-1,.2-1,.4l.3,5.7,1.3.3ZM938.1,260.2l.4-3.4-1.8-.8-.4,4.1h1.9-.1ZM763.7,272l9.3-3.5c-5.7-2.6-11.2-4.9-16.9-7.2l-15.3,4.3,16.7,8.5,6.1-2.2h.1ZM915.3,271.7l12.2-6.5-8.5-2.3-5.8-1.7-13.7,6.4,12.9,4.8c1,.3,1.9-.1,3-.7h-.1ZM733.5,270.7l-.5-7.1c-.4,0-.9.2-1.1.4l.5,5.9c0,.5.6,1,1.1.8h0ZM937.5,267.8l.3-4.3h-2l-.6,4.1,2.4.2h-.1ZM933.1,271.5c.3-1.3.9-3.1.2-4.4s-2.5-1.3-3.4-1l-14.1,7.4,8.8,2.9,8.5-4.8h0ZM746,278.2l8.9-3.2-13.5-7-4.4-2-2.2.9.3,5.5c3.8,1.9,7.2,3.7,10.9,5.8h0ZM851.5,303.5l47.9-23.5,10.1-5.3-14.8-4.8-53,23.8-.3,14.7,10.2-4.9h-.1ZM831.5,308.5l.7-15.1-52.7-22.2-15.5,5.8,67.5,31.5h0ZM937,273.8v-2.6l-2.4,1.6,2.4,1.1h0ZM731,274.8c0-.6-.3-1.2-.6-1.6,0,2.8-.4,5.3.8,7.9l-.2-6.3ZM932.5,278.8c.2-1.6,0-2.8,0-4l.6-1.4-5.9,3.5,5.4,1.9ZM734.1,280.6l-.4-6.3c0-.3-1-.5-1.2-.3l.3,6.6h1.4,0ZM743,279l-7.6-4.1.3,6.6,7.4-2.4h-.1ZM841.3,321.5l56.7-30.4,19.4-10.5,3.5-2.2c-3.1-1.3-5.8-2.3-8.9-3.1l-9.2,4.9-22,11-28.1,13.8-11.5,5.7v10.9h0ZM936.4,281.4l.4-4.8-2.6.2c-.2,1.1-.4,2.7,0,3.7,1.1.1,1.4.3,2.1,1h0ZM831.4,310.8l-7.8-3.7-41.4-19.4-21.2-9.8c-3,1.1-5.8,2-8.8,3.3l73.1,37.2,5.7,3,.4-10.6ZM845.9,337.9l16-9.7,58.1-35.3,11.8-6.7c.4-1.2.5-2.7.5-4l-5.5-1.7-3.5-1.2-9.9,5.6-52.4,28.3-19.7,10.6-.2,4.6-.3,12.3,5.1-2.8h0ZM830.1,341l.4-9.1.4-8.3-54.4-27.8-20.6-10.4-6.4-3.3c-4.1,1.4-8,2.8-12.1,4.5l-1.7,1.1c.6.7,1.3,1.3,2.1,1.7l10.5,5.7,43.9,24.5,29.1,16.3,8.7,5h0ZM838.6,284c-.5-.9-1.5-1.4-2.4-1.4s-1.6.6-1.8,1.6c1.4.6,2.8.5,4.2-.2ZM735,292.8l-.8-9.1-1.2.5.4,9.1c.4.1,1.5-.1,1.5-.5h0ZM933.5,289.6l2.5.6.3-5.6c-1.1.2-1.6.2-2.4-.4-.7,2.1,2.4,1.6.9,3.7l-1.4,1.9v-.2ZM731.5,285.8c0-.5-.2-1-.7-1.1.2,3,0,5.7.8,8.7.4-2.5,0-4.9,0-7.6h0ZM839.8,286.3h-.5c-2.1,1-4.1.6-6.5,0,2.5,3.3,7.8.1,7,0ZM836.7,351.8l1.8-1.1,1.1-57v-4.4c0,0-2.7.8-2.7.8l-.3,27.3v34.4h.1ZM834.8,352.7v-52.1l.2-10.3-.2-.6h-.5l-.4,10.3-2.2,50.8,3.1,1.9h0Z"/>
  <path class="st0" d="M519.5,703.6c-11.6,1.1-22.6.8-34,0s-9.8-5-9.8-10.8v-144c0-5.6,5.2-9.7,10.5-9.7.3-2,1.4-3.5,3.5-3.4l1.6-6.3c-1.3-.7-2-1.9-1.7-3.2l1.2-4.5c.4-1.5,1.6-2.4,3.2-2.5l1.6-6c-1.6-.8-2-2.3-1.6-4l1.2-4.2c.4-1.3,1.5-2.1,3.1-2.1l1.7-6.1c-2.3-1.3-2.9-4.1-1.3-6s4.2-2.1,6-.3,1.4,4.7-.9,6.1l1.6,6.3c1.8-.1,2.9,1.2,3.4,2.8l1,3.8c.4,1.4-.1,2.7-1.6,3.5l1.6,6.1c1.7,0,2.9,1.1,3.3,2.6l1.1,4.2c.4,1.4-.3,2.8-1.6,3.4l1.6,6.2c2,0,3.2,1.3,3.5,3.4,5.7-.2,10.9,4.1,10.9,10v144.9c0,4.9-4.2,9.1-9,9.5v.2ZM502.1,495.1c.5,0,1.1.2,1.6.5,1.3-1,1.4-3.2.1-4.3s-3.3-1-4.3.4-.5,3.3.8,4.1c.2-.3.3-.8.6-.8h1.2,0ZM502.8,503.5l-1-5.7-.8,5.6c0,.3.8.8,1,.6l.8-.6h0ZM496.1,512.3l.8-5.3c.2-1.1.5-2,1.3-2.9-.7,0-1.6.8-1.8,1.4l-1.2,4.3c-.2.9-.1,2,.9,2.5h0ZM508,512.2c.5-.6,1-1.4.8-2.1l-1.2-4.6c-.2-.8-1.1-1.5-1.8-1.5l1,2.4.6,4.7.6,1h0ZM498.6,511.6l1.6-5.5-.8-1.7c-.7.6-1.2,1.2-1.3,2l-.7,4.8c0,.3.3.9.4,1s.8-.4.9-.6h-.1ZM506.3,511.3l-.6-4.9c-.1-.8-.6-1.5-1.4-1.8-.5.8-.5,1.8-.2,2.8l1.1,4c0,.2.6.6.8.7s.3-.7.3-.9h0ZM504,513.1v-1.4l-1.1-4.3-.5,3.1c-.2,1.2.2,2.2,1.6,2.6ZM501.3,511.1l-.4-3.1-1.4,5c1,0,2-.9,1.8-1.9ZM505.5,538.7l1.9-1.5-.8-6.3c-1.2,0-2.6-.9-2.8-2.3l-.7-4.6c-.3-1.6.4-3,2-3.6l-.9-6.2c-1-.3-1.8-.8-2.4-1.3-.5.5-1.3,1-2.3,1.3l-.9,6.2c1.7.7,2.3,2.1,2,3.7l-.6,4c-.2,1.6-1.3,2.5-2.9,2.8l-.9,6.2,1.9,1.6h7.4,0ZM497.6,519.8l.8-6c-.6-.2-1.4-.3-1.7,0l-1.6,5.7c.2.3.7.8,1,1s1.3-.2,1.4-.7h.1ZM508.4,518.2l-1.3-4.5c-.1-.4-1.6,0-1.8.4l.9,6.2c.8.3,1.5.4,1.9,0,.6-.6.7-1.2.4-2.1h-.1ZM494.1,527.1l.8-5c0-.2.5-.7.5-.9s-.6-.4-.4-.3l-.9.8c-.2.2-.4-.7-.5-1.1-.4-.2-1.5.6-1.6,1.2l-1.2,4.5c-.2.8.3,1.8.8,2.3l.6-.8c0,0,.7,0,.6.2v.9l1-.4c.2,0,.3-.9.3-1.4h0ZM511.1,528.7c.1-.7.5-1.2.7-1l.7.8c.3,0,.9-1.3.8-1.8l-1.3-5c-.2-.6-1.2-1.2-1.7-1.3v1c0,.2-.7.3-.8,0l-.4-.8-.6.7c-.1,0,.5.7.5.9l.7,5.3c.1.8,1.1,1.4,1.5,1.1h-.1ZM499,527.3l.4-3.1c.2-1.1,0-2.2-1-2.7l-.5.9c0,.2-.6,0-.6-.2l-.3-.9c-.5,2.3-1.1,4.8-1.8,7.2,0,.4.6,1.1.8,1.2l.6-1c0,0,.5,0,.5.3l.3.9c.9-.4,1.4-1.3,1.6-2.4v-.2ZM506.2,529.7c.3-.6.7-1.2.8-1l.6.9c.8-.5,1-1.2.8-2.2l-1.4-5c0-.2.3-.8.1-.9s-.7-.2-.5-.2l-.6,1.1c-.1.2-.6-.5-.8-.8-.5,0-1.1,1.1-1,1.8l.6,4.6c.1.8.9,1.7,1.5,1.7h-.1ZM511.2,538.9c.3-1.4,1-2.2,1.9-2.9l-1.7-6.1-2.1-.6-1.7,1.5.8,6.2c1.3.2,2,.8,2.7,1.8h.1ZM492.4,538.6c1-.9,1.8-1.4,2.8-1.8l.9-5.9-1.7-1.4-2,.6-1.5,6c1,.8,1.6,1.7,1.6,2.6h0ZM490.6,537.1l-.9.9c-.1,0-.4-.3-.4-.5v-.8c-1,.3-1.9.9-1.8,2.4l4.1-.3-.9-1.7h-.1ZM512.6,538.9l3.8.2c0-1.2-.8-2.3-1.9-2.2v1c0,.2-.7,0-.8,0l-.4-.7c-.4.4-.8,1.4-.7,1.8h0ZM517.1,550.9c-.2-.7-.4-.9-1-1.4.6-.7.4-2.8-.6-3.1s-2.4-.8-2.8-2.2l-1.2-4.2c-6.5-.3-12.7-.2-19.3,0l-1.2,4.2c-.4,1.4-1.5,2.2-3.1,2.3l-.7,2.8h.8c.1,0,.3.3.2.4l-.5.2-.9.4c-.2,0,.3.9.3.7,10.1-.9,19.8-.8,29.9,0h0ZM488.5,545.2c.5,0,1.4-.7,1.6-1.3l1-3.9-4,.2-.7,2.8c-.1.5.4,1.7.7,1.8l.6-.8c.1,0,.6,0,.6.2l.2.9h0ZM516.7,544.9c.6-.4.9-1.5.7-2.2l-.7-2.5h-4c0,0,1.1,4,1.1,4,0,.5,1.3,1.1,1.7,1.1v-1c0-.2.6-.3.7,0l.5.7ZM484.9,549.5l1.3-.5.8-3c-1.3-.7-2-2-1.6-3.5l.5-2.2c-6.3.3-9.7,5.4-9.1,11.7l8.4-.9c.3,0,.9-.6.7-.8l-.9-.7h0ZM518,549.8c0,.4.4,1.2.9,1.2l8.6,1c.6-6.4-2.8-11.5-9.5-11.7l.5,2.1c.4,1.6-.4,2.8-1.7,3.7l.9,3.3h1.5c0,.2-.2.7-.4.6l-.9-.2h.1ZM527.5,689.9v-136.8l-6.5-.8c.6.6,1.1.9,1.9,1.4,0-.2-.2.8-.2,1l.8,3.8c.6,2.8-2.2,2.6-2.2,5.4v10.4c0,1.3-2.1.9-2.8.7l-4.8-1.5v-14.5c0-1.2,0-2,.8-3l1.7-2c0-.4,0-.7,0-.8l.8-.3.6-.3c0,0-.4-.4-.6-.5-10.3-.9-20.4-.9-30.6,0-.1.9,1.6.7,1.7,1.1v.8l1.6,1.7c1,1.2,1,2.3,1,3.7v14l-5.8,1.8c-.5.2-1.9-.3-1.9-.9v-10.7c0-2.3-2.8-2.4-2.3-4.8l.7-3.3v-1.7l1.9-1.4-6.5.8v136.8c17,2.4,33.8,2.4,50.8,0h-.2ZM489.4,557l-3-3.5-1,.9c-.5.5-.2-1.6-.6-1.4s-.5.2-.5.3v.7l-1.4.2-1.1,5.7,7.2-1.9c.2,0,.8,0,.7,0s-.2-.7-.3-.9h0ZM522.7,559.8l-1.1-5.7-1.5-.2v-.8c0-.2-.6-.2-.7,0-.2.2-.4,1.5-.8,1.3l-.9-.6-3.2,4,8.2,2.1ZM483.4,562.8l7-2-1.4-2.6-6.9,2,1.3,2.7h0ZM521,562.8l1.1-2.7-6.9-2-1.3,2.7,7.1,1.9h0ZM489.9,571.8v-4.3c.1-.2,0-.6-.1-.9l.3-.6c0,0-.2-.5-.2-.6v-1.4c.2-.7.4-1.5.3-2.5l-6,1.6c-.2,0-.8.5-.7.7l.4.7v8.8l-.3,1c0,.3.9.5,1.2.4l4.5-1.1c.3,0,.8-.3.8-.5v-1.1l-.2-.2ZM514.3,573.1l5.2,1.5c.3,0,1.3-.2,1.2-.5l-.3-.9v-8.7c0,0,.4-1,.4-1,0-.2-.6-.4-.9-.5l-5.9-1.6v1.5c0,0,.6.2.6.2v.2l-.7.2s.4.3.4.5l-.2.4c0,0,.4.4.3.5l-.3.4c.4.7.5,1.8-.2,2.4h.4c0,0,0,.4,0,.6l-.2,5,.2-.2ZM518.6,702.7c6.2-.4,9.6-5.6,8.9-11.7-16.9,2.4-33.8,2.4-50.7,0v3.8c.7,4.1,3.8,7.2,7.9,7.8,11.3.9,22.3.9,33.9,0h0Z"/>
  <path class="st0" d="M603.7,665.4c-3.1.8-6.1,1.1-9.2,1.1-10.3,0-19.6-3.3-25.5-12.1-1.9-2.9-3.3-5.9-4.4-9.2-2.8-8-2.8-16.5,0-24.5,1.4-4,3.2-7.8,5.5-11.4s5.5-8.1,8.4-12.1,6.4-8.5,8-13.6,1.6-5.5,2.3-8.4h2.2c-1.4-2.6-1.8-5.4-1.4-8.2-2.6-.4-6.7-1.8-6.7-4.3s2.7-3.4,4.8-3.9c4.3-1.1,8.9-1.1,13.3,0s4.8,1.9,4.8,3.9-4,3.9-6.7,4.3c.4,2.6,0,5.3-1.2,7.8l1.8.2,2.6,9.2c.9,3.2,2.6,6,4.5,8.7l7.2,10.2c3.8,5.4,8.4,13.4,10.4,19.6s1.9,8.8,1.5,13.5c-.3,3.4-.9,6.6-1.9,9.8s-3.3,7.7-6.2,10.8-8.4,6.9-13.8,8.3l-.2.3ZM594.6,561.8l.2,1c1.7.4,2.9,1.5,3.6,3.1,2.1-.4,4.6-1,5.8-2.7.5-1.6-2.3-2.7-4.1-3.2-4-1-8.2-.9-12.2,0s-4.1,1.5-3.9,3c1.1,1.8,3.8,2.4,5.9,2.8.8-1.5,1.9-2.6,3.5-3.1v-.9c0-.4,0-.8.5-.8s.7.2.7.6v.2ZM592.9,575.1c-1.1-2.2-1.5-4.4-1.2-6.6s.8-2.1,1.8-2.5v-1.8c-2.2.8-3.2,2.9-3.1,5.3s.6,3.7,1.5,5.4.6.5.9.2h0ZM595.1,575c.4.2,1,0,1.3-.5,1.2-2.3,1.6-5,.9-7.5s-1.2-2.4-2.5-2.8v1.8c.9.2,1.4.8,1.5,1.7.4,2.3-.4,5-1.3,7.3h0ZM594,574.4c.7-1.7,1.2-3.5,1.3-5.3s0-1.2-.5-1.7l-.2,1c0,.3-.4.6-.8.5s-.4-.5-.6-1c-.6,2-.2,4.4.8,6.5ZM592.7,581.4c2.4,0,4.6,0,7-.7l-1.2-4.4-8.8.2-1.1,4.3c1.4.3,2.7.5,4.2.5h-.1ZM599.6,664.8c10.8-1.3,19.9-8.7,22.9-19.2s1.4-5.7,1.7-8.7c.6-5,0-9.9-1.7-14.6s-6.6-13.6-10.2-18.8l-7.1-10.1c-2.4-3.5-4.2-7.3-5.2-11.6l-2.6.6.7,6.8c.4,3.4,1,6.5,1.9,9.8l3.3,11.4c1,3.4,2.2,6.6,3.4,9.9l2.2,5.8c2.7,7.1,2.6,15.5.8,22.8-.9,3.7-2.4,7.2-4.5,10.3s-3.3,4-5.7,5.4v.2ZM585.8,664.3c-1.8-1.4-3.3-3-4.5-4.9-6.1-9.8-6.8-22.4-3.6-33.3s1.5-4.7,2.5-7.1l3.4-8.1,2.9-6.4c1.5-3.4,2.6-6.7,3-10.4l1.4-11.5-2.9-.5c-1.5,5.8-4.2,9.7-7.6,14.3l-6.2,8.6c-1.8,2.5-3.4,5-4.9,7.7-5.6,9.9-7.5,20.4-3.9,31.3,3.4,10.4,9.2,17.7,20.3,20.2h0ZM604.5,658.4c2-3.1,3.4-6.4,4.2-10.1,1.5-6.8,1.7-14.8-.8-21.3l-2.2-6c-1.2-3.3-2.4-6.5-3.4-9.9l-3.7-12.9c-.7-2.4-1.1-4.8-1.5-7.3l-.9-8.3h-3.8l-1.4,11.6c-.5,3.7-1.5,7.1-3,10.5l-3,6.5-3.5,8.1c-3.8,8.9-5.4,17.7-3.6,27.3.6,3.5,1.8,6.8,3.4,9.9,2.4,4.6,5.8,8.2,11.1,8.5s9.3-2.5,12.1-6.7h0Z"/>
  <g>
    <path class="st2" d="M328.6,935.1l21.1-51.9,21.3,8.6c3.6,1.5,6.4,3.3,8.4,5.4,2,2.1,3.2,4.5,3.7,7s.1,5.1-.9,7.7c-1.1,2.6-2.5,4.6-4.3,5.9-1.8,1.3-3.9,2.1-6.2,2.3-2.3.2-4.5,0-6.8-.8l1.4-.4c2.3,1.1,4.2,2.5,5.6,4.5,1.4,1.9,2.2,4,2.5,6.4.3,2.4,0,4.7-1,6.9-1.1,2.8-2.8,4.9-4.9,6.5-2.2,1.6-4.8,2.5-7.8,2.7-3,.2-6.4-.5-10-2l-22-8.9ZM341.9,931l10.5,4.2c2.7,1.1,5,1.3,7,.7,2-.6,3.4-2.1,4.4-4.4.9-2.3.9-4.5,0-6.4-1-1.9-2.8-3.4-5.5-4.5l-10.3-4.2-5.9,14.6ZM350.9,908.9l9.6,3.9c2.6,1.1,4.9,1.3,6.7.7,1.9-.6,3.2-2,4.1-4.2.9-2.1.8-4.1,0-5.8-.9-1.8-2.7-3.2-5.3-4.3l-9.6-3.9-5.5,13.6Z"/>
    <path class="st2" d="M407.3,965.5c-5.1-1.7-9.3-4.3-12.4-7.9-3.2-3.6-5.2-7.8-6.1-12.7-.9-4.9-.5-10,1.3-15.4,1.8-5.4,4.4-9.8,8-13.2,3.6-3.4,7.7-5.6,12.4-6.7,4.7-1.1,9.6-.8,14.7.9,5.2,1.7,9.5,4.4,12.7,8,3.2,3.6,5.3,7.9,6.1,12.7.9,4.9.4,10-1.3,15.4-1.8,5.4-4.4,9.9-8,13.3-3.5,3.4-7.7,5.7-12.4,6.7-4.7,1-9.7.7-14.9-1ZM410.3,956.3c3.3,1.1,6.4,1.2,9.2.5,2.8-.7,5.4-2.3,7.5-4.6s3.9-5.4,5.1-9.1c1.2-3.8,1.6-7.3,1.2-10.4-.4-3.1-1.6-5.8-3.4-8.1s-4.5-3.9-7.8-5c-3.1-1-6.1-1.2-9-.5-2.8.7-5.4,2.2-7.6,4.5-2.2,2.3-3.9,5.3-5.1,9.1-1.2,3.8-1.6,7.2-1.2,10.4.4,3.2,1.6,5.9,3.5,8.1,1.9,2.3,4.4,3.9,7.5,4.9Z"/>
    <path class="st2" d="M443.2,975.7l24.1-23.2-10.5-31.1,12.1,3.1,7.2,21.5,15.6-15.8,11.9,3-24,22.9,10.6,31.5-12.1-3.1-7.2-21.9-15.7,16.1-11.9-3Z"/>
    <path class="st2" d="M504.7,990.5l11.3-54.9,10.6,2.2-11.3,54.9-10.6-2.2Z"/>
    <path class="st2" d="M532.7,996.3l8.6-55.3,10.7,1.7,19.5,42.1,5.9-38.2,10.7,1.7-8.6,55.3-10.7-1.7-19.6-42-5.9,38.1-10.7-1.7Z"/>
    <path class="st2" d="M622.3,1008.7c-5.3-.4-9.8-2-13.5-4.7-3.8-2.7-6.6-6.3-8.4-10.7-1.8-4.5-2.5-9.5-2-15.2.5-5.7,2-10.7,4.6-14.9,2.6-4.2,6.1-7.4,10.5-9.5,4.4-2.2,9.5-3,15.3-2.5,6.6.5,11.9,2.6,16,6.1,4.1,3.5,6.5,8.1,7.3,13.8l-12-1c-.6-2.5-1.9-4.6-4-6.1-2.1-1.6-4.8-2.5-8.2-2.8-3.6-.3-6.8.2-9.4,1.6-2.7,1.4-4.8,3.5-6.3,6.2-1.6,2.8-2.5,6.1-2.8,10.1-.3,4,0,7.5,1.1,10.4,1.1,2.9,2.8,5.2,5.1,6.9,2.4,1.7,5.2,2.6,8.6,2.9,4.9.4,8.7-.6,11.4-3,2.7-2.4,4.5-5.7,5.3-9.9l-13.7-1.1.7-8.1,24.6,2-2.5,30.9-9.9-.8-.3-7.2c-1.3,1.7-2.8,3-4.5,4.1-1.7,1.1-3.6,1.8-5.7,2.3-2.1.4-4.5.5-7.3.3Z"/>
    <path class="st2" d="M688.7,1011.3l19.5-56.3,12.2-.2,21.3,55.7-11.4.2-15.8-43.4-14.5,43.9-11.3.2ZM697.4,998.4l2.7-8.4,28.5-.5,2.9,8.4-34.2.6Z"/>
    <path class="st2" d="M756.8,1009.7l-5.3-55.8,12.8-1.2,20.2,33.1,13.7-36.3,12.8-1.2,5.3,55.8-10.8,1-3.5-37.5-12,31.1-8.4.8-17.6-28.2,3.5,37.4-10.8,1Z"/>
    <path class="st2" d="M831.4,1002l10.5-58.7,12.1-2.1,29.7,51.7-11.3,2-22.4-40.5-7.5,45.6-11.1,1.9ZM838.1,987.9l1.4-8.8,28.1-4.9,4.2,7.8-33.7,5.8Z"/>
    <path class="st2" d="M904.7,988l-10.8-46-15.9,3.7-2-8.5,42.3-9.9,2,8.5-15.9,3.7,10.8,46-10.5,2.5Z"/>
    <path class="st2" d="M945.3,978l-15.9-53.7,35.4-10.5,2.5,8.4-25,7.4,4.1,14,22.7-6.7,2.4,8.1-22.7,6.7,4.4,14.9,25-7.4,2.5,8.4-35.4,10.5Z"/>
    <path class="st2" d="M1017.6,955.8c-3.9,1.4-7.7,1.9-11.4,1.5-3.7-.4-7.1-1.8-10.1-4.3-3-2.4-5.3-6.1-7.1-10.9l-11.7-32.3,10.2-3.7,11.8,32.4c.9,2.6,2.2,4.6,3.7,6.1,1.5,1.5,3.3,2.3,5.2,2.6,1.9.3,4,0,6.3-.8,2.3-.8,4.1-2,5.4-3.4,1.3-1.4,2.1-3.2,2.3-5.3.2-2.1-.2-4.4-1.1-7l-11.8-32.4,10.2-3.7,11.7,32.3c1.7,4.8,2.2,9.1,1.5,12.9-.8,3.8-2.5,7.1-5.2,9.8-2.7,2.7-6,4.8-9.9,6.2Z"/>
    <path class="st2" d="M1054.9,940.6l-22.2-51.4,19.2-8.3c4.1-1.8,7.8-2.5,11.2-2.3,3.3.2,6.2,1.3,8.5,3.1,2.3,1.8,4.1,4.1,5.4,7,1.2,2.7,1.6,5.6,1.4,8.5-.3,2.9-1.5,5.7-3.5,8.3-2.1,2.6-5.3,4.9-9.5,6.7l-9.2,4,8.7,20.1-9.9,4.3ZM1053,909l8.7-3.7c3-1.3,4.9-3,5.7-5.1s.7-4.3-.4-6.7c-1-2.4-2.6-4-4.6-4.8-2-.8-4.5-.5-7.6.8l-8.7,3.7,6.8,15.8ZM1081.5,929l-20.4-18,10.7-4.6,20.9,17.8-11.3,4.9Z"/>
  </g>
</svg>